<?xml version="1.0" encoding="utf-8" standalone="no"?>
<!DOCTYPE svg PUBLIC "-//W3C//DTD SVG 1.1//EN"
  "http://www.w3.org/Graphics/SVG/1.1/DTD/svg11.dtd">
<svg xmlns:xlink="http://www.w3.org/1999/xlink" width="907.2pt" height="568.8pt" viewBox="0 0 907.2 568.8" xmlns="http://www.w3.org/2000/svg" version="1.1">
 <metadata>
  <rdf:RDF xmlns:dc="http://purl.org/dc/elements/1.1/" xmlns:cc="http://creativecommons.org/ns#" xmlns:rdf="http://www.w3.org/1999/02/22-rdf-syntax-ns#">
   <cc:Work>
    <dc:type rdf:resource="http://purl.org/dc/dcmitype/StillImage"/>
    <dc:date>2026-02-07T10:01:00.518794</dc:date>
    <dc:format>image/svg+xml</dc:format>
    <dc:creator>
     <cc:Agent>
      <dc:title>Matplotlib v3.7.2, https://matplotlib.org/</dc:title>
     </cc:Agent>
    </dc:creator>
   </cc:Work>
  </rdf:RDF>
 </metadata>
 <defs>
  <style type="text/css">*{stroke-linejoin: round; stroke-linecap: butt}</style>
 </defs>
 <g id="figure_1">
  <g id="patch_1">
   <path d="M 0 568.8 
L 907.2 568.8 
L 907.2 0 
L 0 0 
z
" style="fill: #ffffff"/>
  </g>
  <g id="axes_1">
   <g id="patch_2">
    <path d="M 35.1 145.8 
L 258.3 145.8 
L 258.3 79.272 
L 35.1 79.272 
z
" clip-path="url(#p9e4ab60d52)" style="fill: #e8f3ff; stroke: #2f3b52; stroke-width: 1.5; stroke-linejoin: miter"/>
   </g>
   <g id="patch_3">
    <path d="M 35.1 240.048 
L 258.3 240.048 
L 258.3 173.52 
L 35.1 173.52 
z
" clip-path="url(#p9e4ab60d52)" style="fill: #fff3e0; stroke: #2f3b52; stroke-width: 1.5; stroke-linejoin: miter"/>
   </g>
   <g id="patch_4">
    <path d="M 286.2 145.8 
L 565.2 145.8 
L 565.2 79.272 
L 286.2 79.272 
z
" clip-path="url(#p9e4ab60d52)" style="fill: #eaf7ea; stroke: #2f3b52; stroke-width: 1.5; stroke-linejoin: miter"/>
   </g>
   <g id="patch_5">
    <path d="M 609.84 145.8 
L 860.94 145.8 
L 860.94 79.272 
L 609.84 79.272 
z
" clip-path="url(#p9e4ab60d52)" style="fill: #f0e8ff; stroke: #2f3b52; stroke-width: 1.5; stroke-linejoin: miter"/>
   </g>
   <g id="patch_6">
    <path d="M 286.2 251.136 
L 565.2 251.136 
L 565.2 162.432 
L 286.2 162.432 
z
" clip-path="url(#p9e4ab60d52)" style="fill: #dff7f1; stroke: #2f3b52; stroke-width: 1.5; stroke-linejoin: miter"/>
   </g>
   <g id="patch_7">
    <path d="M 230.4 356.472 
L 425.7 356.472 
L 425.7 278.856 
L 230.4 278.856 
z
" clip-path="url(#p9e4ab60d52)" style="fill: #f6fbff; stroke: #2f3b52; stroke-width: 1.5; stroke-linejoin: miter"/>
   </g>
   <g id="patch_8">
    <path d="M 442.44 356.472 
L 637.74 356.472 
L 637.74 278.856 
L 442.44 278.856 
z
" clip-path="url(#p9e4ab60d52)" style="fill: #f6fbff; stroke: #2f3b52; stroke-width: 1.5; stroke-linejoin: miter"/>
   </g>
   <g id="patch_9">
    <path d="M 654.48 356.472 
L 849.78 356.472 
L 849.78 278.856 
L 654.48 278.856 
z
" clip-path="url(#p9e4ab60d52)" style="fill: #f6fbff; stroke: #2f3b52; stroke-width: 1.5; stroke-linejoin: miter"/>
   </g>
   <g id="patch_10">
    <path d="M 230.4 461.808 
L 425.7 461.808 
L 425.7 384.192 
L 230.4 384.192 
z
" clip-path="url(#p9e4ab60d52)" style="fill: #fff7f7; stroke: #2f3b52; stroke-width: 1.5; stroke-linejoin: miter"/>
   </g>
   <g id="patch_11">
    <path d="M 442.44 461.808 
L 637.74 461.808 
L 637.74 384.192 
L 442.44 384.192 
z
" clip-path="url(#p9e4ab60d52)" style="fill: #fff7f7; stroke: #2f3b52; stroke-width: 1.5; stroke-linejoin: miter"/>
   </g>
   <g id="patch_12">
    <path d="M 654.48 461.808 
L 849.78 461.808 
L 849.78 384.192 
L 654.48 384.192 
z
" clip-path="url(#p9e4ab60d52)" style="fill: #fff7f7; stroke: #2f3b52; stroke-width: 1.5; stroke-linejoin: miter"/>
   </g>
   <g id="patch_13">
    <path d="M 260.299182 145.8 
Q 272.248906 145.8 282.85699 145.8 
" clip-path="url(#p9e4ab60d52)" style="fill: none; stroke: #2f3b52; stroke-width: 1.2; stroke-linecap: round"/>
    <path d="M 278.05699 143.4 
L 282.85699 145.8 
L 278.05699 148.2 
" clip-path="url(#p9e4ab60d52)" style="fill: none; stroke: #2f3b52; stroke-width: 1.2; stroke-linecap: round"/>
   </g>
   <g id="patch_14">
    <path d="M 260.15614 113.273666 
Q 272.248159 118.079268 283.09339 122.389373 
" clip-path="url(#p9e4ab60d52)" style="fill: none; stroke: #2f3b52; stroke-width: 1.2; stroke-linecap: round"/>
    <path d="M 279.519117 118.386303 
L 283.09339 122.389373 
L 277.74637 122.846949 
" clip-path="url(#p9e4ab60d52)" style="fill: none; stroke: #2f3b52; stroke-width: 1.2; stroke-linecap: round"/>
   </g>
   <g id="patch_15">
    <path d="M 260.299182 206.784 
Q 272.248906 206.784 282.85699 206.784 
" clip-path="url(#p9e4ab60d52)" style="fill: none; stroke: #2f3b52; stroke-width: 1.2; stroke-linecap: round"/>
    <path d="M 278.05699 204.384 
L 282.85699 206.784 
L 278.05699 209.184 
" clip-path="url(#p9e4ab60d52)" style="fill: none; stroke: #2f3b52; stroke-width: 1.2; stroke-linecap: round"/>
   </g>
   <g id="patch_16">
    <path d="M 425.7 147.80185 
Q 425.7 154.118603 425.7 159.093715 
" clip-path="url(#p9e4ab60d52)" style="fill: none; stroke: #2f3b52; stroke-width: 1.2; stroke-linecap: round"/>
    <path d="M 428.1 154.293715 
L 425.7 159.093715 
L 423.3 154.293715 
" clip-path="url(#p9e4ab60d52)" style="fill: none; stroke: #2f3b52; stroke-width: 1.2; stroke-linecap: round"/>
   </g>
   <g id="patch_17">
    <path d="M 565.2 147.80185 
Q 565.2 154.118603 565.2 159.093715 
" clip-path="url(#p9e4ab60d52)" style="fill: none; stroke: #2f3b52; stroke-width: 1.2; stroke-linecap: round"/>
    <path d="M 567.6 154.293715 
L 565.2 159.093715 
L 562.8 154.293715 
" clip-path="url(#p9e4ab60d52)" style="fill: none; stroke: #2f3b52; stroke-width: 1.2; stroke-linecap: round"/>
   </g>
   <g id="patch_18">
    <path d="M 423.962636 229.946375 
Q 376.877107 256.678804 330.958296 282.748838 
" clip-path="url(#p9e4ab60d52)" style="fill: none; stroke: #2f3b52; stroke-width: 1.2; stroke-linecap: round"/>
    <path d="M 336.317405 282.466071 
L 330.958296 282.748838 
L 333.947548 278.291891 
" clip-path="url(#p9e4ab60d52)" style="fill: none; stroke: #2f3b52; stroke-width: 1.2; stroke-linecap: round"/>
   </g>
   <g id="patch_19">
    <path d="M 427.497816 229.831326 
Q 482.895384 256.680186 537.085633 282.94391 
" clip-path="url(#p9e4ab60d52)" style="fill: none; stroke: #2f3b52; stroke-width: 1.2; stroke-linecap: round"/>
    <path d="M 533.812925 278.690749 
L 537.085633 282.94391 
L 531.719479 283.01018 
" clip-path="url(#p9e4ab60d52)" style="fill: none; stroke: #2f3b52; stroke-width: 1.2; stroke-linecap: round"/>
   </g>
   <g id="patch_20">
    <path d="M 427.669956 229.294572 
Q 588.913518 256.679748 748.834379 283.840281 
" clip-path="url(#p9e4ab60d52)" style="fill: none; stroke: #2f3b52; stroke-width: 1.2; stroke-linecap: round"/>
    <path d="M 744.503999 280.670453 
L 748.834379 283.840281 
L 743.700289 285.402688 
" clip-path="url(#p9e4ab60d52)" style="fill: none; stroke: #2f3b52; stroke-width: 1.2; stroke-linecap: round"/>
   </g>
   <g id="patch_21">
    <path d="M 328.05 358.471819 
Q 328.05 370.331925 328.05 380.850389 
" clip-path="url(#p9e4ab60d52)" style="fill: none; stroke: #2f3b52; stroke-width: 1.2; stroke-linecap: round"/>
    <path d="M 330.45 376.050389 
L 328.05 380.850389 
L 325.65 376.050389 
" clip-path="url(#p9e4ab60d52)" style="fill: none; stroke: #2f3b52; stroke-width: 1.2; stroke-linecap: round"/>
   </g>
   <g id="patch_22">
    <path d="M 540.09 358.471819 
Q 540.09 370.331925 540.09 380.850389 
" clip-path="url(#p9e4ab60d52)" style="fill: none; stroke: #2f3b52; stroke-width: 1.2; stroke-linecap: round"/>
    <path d="M 542.49 376.050389 
L 540.09 380.850389 
L 537.69 376.050389 
" clip-path="url(#p9e4ab60d52)" style="fill: none; stroke: #2f3b52; stroke-width: 1.2; stroke-linecap: round"/>
   </g>
   <g id="patch_23">
    <path d="M 752.13 358.471819 
Q 752.13 370.331925 752.13 380.850389 
" clip-path="url(#p9e4ab60d52)" style="fill: none; stroke: #2f3b52; stroke-width: 1.2; stroke-linecap: round"/>
    <path d="M 754.53 376.050389 
L 752.13 380.850389 
L 749.73 376.050389 
" clip-path="url(#p9e4ab60d52)" style="fill: none; stroke: #2f3b52; stroke-width: 1.2; stroke-linecap: round"/>
   </g>
   <g id="patch_24">
    <path d="M 652.520005 318.063456 
Q 491.264067 350.92819 331.322745 383.524999 
" clip-path="url(#p9e4ab60d52)" style="fill: none; stroke: #2f3b52; stroke-width: 1.2; stroke-linecap: round"/>
    <path d="M 336.505338 384.918098 
L 331.322745 383.524999 
L 335.54678 380.214784 
" clip-path="url(#p9e4ab60d52)" style="fill: none; stroke: #2f3b52; stroke-width: 1.2; stroke-linecap: round"/>
   </g>
   <g id="patch_25">
    <path d="M 652.752002 318.668985 
Q 597.285701 350.927592 542.979161 382.511695 
" clip-path="url(#p9e4ab60d52)" style="fill: none; stroke: #2f3b52; stroke-width: 1.2; stroke-linecap: round"/>
    <path d="M 548.335035 382.173158 
L 542.979161 382.511695 
L 545.921856 378.023873 
" clip-path="url(#p9e4ab60d52)" style="fill: none; stroke: #2f3b52; stroke-width: 1.2; stroke-linecap: round"/>
   </g>
   <g id="text_1">
    <!-- SDOH Risk Dashboard - Architecture (Detailed) -->
    <g transform="translate(267.789375 27.695125) scale(0.14 -0.14)">
     <defs>
      <path id="DejaVuSans-Bold-53" d="M 3834 4519 
L 3834 3531 
Q 3450 3703 3084 3790 
Q 2719 3878 2394 3878 
Q 1963 3878 1756 3759 
Q 1550 3641 1550 3391 
Q 1550 3203 1689 3098 
Q 1828 2994 2194 2919 
L 2706 2816 
Q 3484 2659 3812 2340 
Q 4141 2022 4141 1434 
Q 4141 663 3683 286 
Q 3225 -91 2284 -91 
Q 1841 -91 1394 -6 
Q 947 78 500 244 
L 500 1259 
Q 947 1022 1364 901 
Q 1781 781 2169 781 
Q 2563 781 2772 912 
Q 2981 1044 2981 1288 
Q 2981 1506 2839 1625 
Q 2697 1744 2272 1838 
L 1806 1941 
Q 1106 2091 782 2419 
Q 459 2747 459 3303 
Q 459 4000 909 4375 
Q 1359 4750 2203 4750 
Q 2588 4750 2994 4692 
Q 3400 4634 3834 4519 
z
" transform="scale(0.015625)"/>
      <path id="DejaVuSans-Bold-44" d="M 1791 3756 
L 1791 909 
L 2222 909 
Q 2959 909 3348 1275 
Q 3738 1641 3738 2338 
Q 3738 3031 3350 3393 
Q 2963 3756 2222 3756 
L 1791 3756 
z
M 588 4666 
L 1856 4666 
Q 2919 4666 3439 4514 
Q 3959 4363 4331 4000 
Q 4659 3684 4818 3271 
Q 4978 2859 4978 2338 
Q 4978 1809 4818 1395 
Q 4659 981 4331 666 
Q 3956 303 3431 151 
Q 2906 0 1856 0 
L 588 0 
L 588 4666 
z
" transform="scale(0.015625)"/>
      <path id="DejaVuSans-Bold-4f" d="M 2719 3878 
Q 2169 3878 1866 3472 
Q 1563 3066 1563 2328 
Q 1563 1594 1866 1187 
Q 2169 781 2719 781 
Q 3272 781 3575 1187 
Q 3878 1594 3878 2328 
Q 3878 3066 3575 3472 
Q 3272 3878 2719 3878 
z
M 2719 4750 
Q 3844 4750 4481 4106 
Q 5119 3463 5119 2328 
Q 5119 1197 4481 553 
Q 3844 -91 2719 -91 
Q 1597 -91 958 553 
Q 319 1197 319 2328 
Q 319 3463 958 4106 
Q 1597 4750 2719 4750 
z
" transform="scale(0.015625)"/>
      <path id="DejaVuSans-Bold-48" d="M 588 4666 
L 1791 4666 
L 1791 2888 
L 3566 2888 
L 3566 4666 
L 4769 4666 
L 4769 0 
L 3566 0 
L 3566 1978 
L 1791 1978 
L 1791 0 
L 588 0 
L 588 4666 
z
" transform="scale(0.015625)"/>
      <path id="DejaVuSans-Bold-20" transform="scale(0.015625)"/>
      <path id="DejaVuSans-Bold-52" d="M 2297 2597 
Q 2675 2597 2839 2737 
Q 3003 2878 3003 3200 
Q 3003 3519 2839 3656 
Q 2675 3794 2297 3794 
L 1791 3794 
L 1791 2597 
L 2297 2597 
z
M 1791 1766 
L 1791 0 
L 588 0 
L 588 4666 
L 2425 4666 
Q 3347 4666 3776 4356 
Q 4206 4047 4206 3378 
Q 4206 2916 3982 2619 
Q 3759 2322 3309 2181 
Q 3556 2125 3751 1926 
Q 3947 1728 4147 1325 
L 4800 0 
L 3519 0 
L 2950 1159 
Q 2778 1509 2601 1637 
Q 2425 1766 2131 1766 
L 1791 1766 
z
" transform="scale(0.015625)"/>
      <path id="DejaVuSans-Bold-69" d="M 538 3500 
L 1656 3500 
L 1656 0 
L 538 0 
L 538 3500 
z
M 538 4863 
L 1656 4863 
L 1656 3950 
L 538 3950 
L 538 4863 
z
" transform="scale(0.015625)"/>
      <path id="DejaVuSans-Bold-73" d="M 3272 3391 
L 3272 2541 
Q 2913 2691 2578 2766 
Q 2244 2841 1947 2841 
Q 1628 2841 1473 2761 
Q 1319 2681 1319 2516 
Q 1319 2381 1436 2309 
Q 1553 2238 1856 2203 
L 2053 2175 
Q 2913 2066 3209 1816 
Q 3506 1566 3506 1031 
Q 3506 472 3093 190 
Q 2681 -91 1863 -91 
Q 1516 -91 1145 -36 
Q 775 19 384 128 
L 384 978 
Q 719 816 1070 734 
Q 1422 653 1784 653 
Q 2113 653 2278 743 
Q 2444 834 2444 1013 
Q 2444 1163 2330 1236 
Q 2216 1309 1875 1350 
L 1678 1375 
Q 931 1469 631 1722 
Q 331 1975 331 2491 
Q 331 3047 712 3315 
Q 1094 3584 1881 3584 
Q 2191 3584 2531 3537 
Q 2872 3491 3272 3391 
z
" transform="scale(0.015625)"/>
      <path id="DejaVuSans-Bold-6b" d="M 538 4863 
L 1656 4863 
L 1656 2216 
L 2944 3500 
L 4244 3500 
L 2534 1894 
L 4378 0 
L 3022 0 
L 1656 1459 
L 1656 0 
L 538 0 
L 538 4863 
z
" transform="scale(0.015625)"/>
      <path id="DejaVuSans-Bold-61" d="M 2106 1575 
Q 1756 1575 1579 1456 
Q 1403 1338 1403 1106 
Q 1403 894 1545 773 
Q 1688 653 1941 653 
Q 2256 653 2472 879 
Q 2688 1106 2688 1447 
L 2688 1575 
L 2106 1575 
z
M 3816 1997 
L 3816 0 
L 2688 0 
L 2688 519 
Q 2463 200 2181 54 
Q 1900 -91 1497 -91 
Q 953 -91 614 226 
Q 275 544 275 1050 
Q 275 1666 698 1953 
Q 1122 2241 2028 2241 
L 2688 2241 
L 2688 2328 
Q 2688 2594 2478 2717 
Q 2269 2841 1825 2841 
Q 1466 2841 1156 2769 
Q 847 2697 581 2553 
L 581 3406 
Q 941 3494 1303 3539 
Q 1666 3584 2028 3584 
Q 2975 3584 3395 3211 
Q 3816 2838 3816 1997 
z
" transform="scale(0.015625)"/>
      <path id="DejaVuSans-Bold-68" d="M 4056 2131 
L 4056 0 
L 2931 0 
L 2931 347 
L 2931 1625 
Q 2931 2084 2911 2256 
Q 2891 2428 2841 2509 
Q 2775 2619 2662 2680 
Q 2550 2741 2406 2741 
Q 2056 2741 1856 2470 
Q 1656 2200 1656 1722 
L 1656 0 
L 538 0 
L 538 4863 
L 1656 4863 
L 1656 2988 
Q 1909 3294 2193 3439 
Q 2478 3584 2822 3584 
Q 3428 3584 3742 3212 
Q 4056 2841 4056 2131 
z
" transform="scale(0.015625)"/>
      <path id="DejaVuSans-Bold-62" d="M 2400 722 
Q 2759 722 2948 984 
Q 3138 1247 3138 1747 
Q 3138 2247 2948 2509 
Q 2759 2772 2400 2772 
Q 2041 2772 1848 2508 
Q 1656 2244 1656 1747 
Q 1656 1250 1848 986 
Q 2041 722 2400 722 
z
M 1656 2988 
Q 1888 3294 2169 3439 
Q 2450 3584 2816 3584 
Q 3463 3584 3878 3070 
Q 4294 2556 4294 1747 
Q 4294 938 3878 423 
Q 3463 -91 2816 -91 
Q 2450 -91 2169 54 
Q 1888 200 1656 506 
L 1656 0 
L 538 0 
L 538 4863 
L 1656 4863 
L 1656 2988 
z
" transform="scale(0.015625)"/>
      <path id="DejaVuSans-Bold-6f" d="M 2203 2784 
Q 1831 2784 1636 2517 
Q 1441 2250 1441 1747 
Q 1441 1244 1636 976 
Q 1831 709 2203 709 
Q 2569 709 2762 976 
Q 2956 1244 2956 1747 
Q 2956 2250 2762 2517 
Q 2569 2784 2203 2784 
z
M 2203 3584 
Q 3106 3584 3614 3096 
Q 4122 2609 4122 1747 
Q 4122 884 3614 396 
Q 3106 -91 2203 -91 
Q 1297 -91 786 396 
Q 275 884 275 1747 
Q 275 2609 786 3096 
Q 1297 3584 2203 3584 
z
" transform="scale(0.015625)"/>
      <path id="DejaVuSans-Bold-72" d="M 3138 2547 
Q 2991 2616 2845 2648 
Q 2700 2681 2553 2681 
Q 2122 2681 1889 2404 
Q 1656 2128 1656 1613 
L 1656 0 
L 538 0 
L 538 3500 
L 1656 3500 
L 1656 2925 
Q 1872 3269 2151 3426 
Q 2431 3584 2822 3584 
Q 2878 3584 2943 3579 
Q 3009 3575 3134 3559 
L 3138 2547 
z
" transform="scale(0.015625)"/>
      <path id="DejaVuSans-Bold-64" d="M 2919 2988 
L 2919 4863 
L 4044 4863 
L 4044 0 
L 2919 0 
L 2919 506 
Q 2688 197 2409 53 
Q 2131 -91 1766 -91 
Q 1119 -91 703 423 
Q 288 938 288 1747 
Q 288 2556 703 3070 
Q 1119 3584 1766 3584 
Q 2128 3584 2408 3439 
Q 2688 3294 2919 2988 
z
M 2181 722 
Q 2541 722 2730 984 
Q 2919 1247 2919 1747 
Q 2919 2247 2730 2509 
Q 2541 2772 2181 2772 
Q 1825 2772 1636 2509 
Q 1447 2247 1447 1747 
Q 1447 1247 1636 984 
Q 1825 722 2181 722 
z
" transform="scale(0.015625)"/>
      <path id="DejaVuSans-Bold-2d" d="M 347 2297 
L 2309 2297 
L 2309 1388 
L 347 1388 
L 347 2297 
z
" transform="scale(0.015625)"/>
      <path id="DejaVuSans-Bold-41" d="M 3419 850 
L 1538 850 
L 1241 0 
L 31 0 
L 1759 4666 
L 3194 4666 
L 4922 0 
L 3713 0 
L 3419 850 
z
M 1838 1716 
L 3116 1716 
L 2478 3572 
L 1838 1716 
z
" transform="scale(0.015625)"/>
      <path id="DejaVuSans-Bold-63" d="M 3366 3391 
L 3366 2478 
Q 3138 2634 2908 2709 
Q 2678 2784 2431 2784 
Q 1963 2784 1702 2511 
Q 1441 2238 1441 1747 
Q 1441 1256 1702 982 
Q 1963 709 2431 709 
Q 2694 709 2930 787 
Q 3166 866 3366 1019 
L 3366 103 
Q 3103 6 2833 -42 
Q 2563 -91 2291 -91 
Q 1344 -91 809 395 
Q 275 881 275 1747 
Q 275 2613 809 3098 
Q 1344 3584 2291 3584 
Q 2566 3584 2833 3536 
Q 3100 3488 3366 3391 
z
" transform="scale(0.015625)"/>
      <path id="DejaVuSans-Bold-74" d="M 1759 4494 
L 1759 3500 
L 2913 3500 
L 2913 2700 
L 1759 2700 
L 1759 1216 
Q 1759 972 1856 886 
Q 1953 800 2241 800 
L 2816 800 
L 2816 0 
L 1856 0 
Q 1194 0 917 276 
Q 641 553 641 1216 
L 641 2700 
L 84 2700 
L 84 3500 
L 641 3500 
L 641 4494 
L 1759 4494 
z
" transform="scale(0.015625)"/>
      <path id="DejaVuSans-Bold-65" d="M 4031 1759 
L 4031 1441 
L 1416 1441 
Q 1456 1047 1700 850 
Q 1944 653 2381 653 
Q 2734 653 3104 758 
Q 3475 863 3866 1075 
L 3866 213 
Q 3469 63 3072 -14 
Q 2675 -91 2278 -91 
Q 1328 -91 801 392 
Q 275 875 275 1747 
Q 275 2603 792 3093 
Q 1309 3584 2216 3584 
Q 3041 3584 3536 3087 
Q 4031 2591 4031 1759 
z
M 2881 2131 
Q 2881 2450 2695 2645 
Q 2509 2841 2209 2841 
Q 1884 2841 1681 2658 
Q 1478 2475 1428 2131 
L 2881 2131 
z
" transform="scale(0.015625)"/>
      <path id="DejaVuSans-Bold-75" d="M 500 1363 
L 500 3500 
L 1625 3500 
L 1625 3150 
Q 1625 2866 1622 2436 
Q 1619 2006 1619 1863 
Q 1619 1441 1641 1255 
Q 1663 1069 1716 984 
Q 1784 875 1895 815 
Q 2006 756 2150 756 
Q 2500 756 2700 1025 
Q 2900 1294 2900 1772 
L 2900 3500 
L 4019 3500 
L 4019 0 
L 2900 0 
L 2900 506 
Q 2647 200 2364 54 
Q 2081 -91 1741 -91 
Q 1134 -91 817 281 
Q 500 653 500 1363 
z
" transform="scale(0.015625)"/>
      <path id="DejaVuSans-Bold-28" d="M 2413 -844 
L 1484 -844 
Q 1006 -72 778 623 
Q 550 1319 550 2003 
Q 550 2688 779 3389 
Q 1009 4091 1484 4856 
L 2413 4856 
Q 2013 4116 1813 3408 
Q 1613 2700 1613 2009 
Q 1613 1319 1811 609 
Q 2009 -100 2413 -844 
z
" transform="scale(0.015625)"/>
      <path id="DejaVuSans-Bold-6c" d="M 538 4863 
L 1656 4863 
L 1656 0 
L 538 0 
L 538 4863 
z
" transform="scale(0.015625)"/>
      <path id="DejaVuSans-Bold-29" d="M 513 -844 
Q 913 -100 1113 609 
Q 1313 1319 1313 2009 
Q 1313 2700 1113 3408 
Q 913 4116 513 4856 
L 1441 4856 
Q 1916 4091 2145 3389 
Q 2375 2688 2375 2003 
Q 2375 1319 2147 623 
Q 1919 -72 1441 -844 
L 513 -844 
z
" transform="scale(0.015625)"/>
     </defs>
     <use xlink:href="#DejaVuSans-Bold-53"/>
     <use xlink:href="#DejaVuSans-Bold-44" x="72.021484"/>
     <use xlink:href="#DejaVuSans-Bold-4f" x="155.029297"/>
     <use xlink:href="#DejaVuSans-Bold-48" x="240.039062"/>
     <use xlink:href="#DejaVuSans-Bold-20" x="323.730469"/>
     <use xlink:href="#DejaVuSans-Bold-52" x="358.544922"/>
     <use xlink:href="#DejaVuSans-Bold-69" x="435.546875"/>
     <use xlink:href="#DejaVuSans-Bold-73" x="469.824219"/>
     <use xlink:href="#DejaVuSans-Bold-6b" x="529.345703"/>
     <use xlink:href="#DejaVuSans-Bold-20" x="595.849609"/>
     <use xlink:href="#DejaVuSans-Bold-44" x="630.664062"/>
     <use xlink:href="#DejaVuSans-Bold-61" x="713.671875"/>
     <use xlink:href="#DejaVuSans-Bold-73" x="781.152344"/>
     <use xlink:href="#DejaVuSans-Bold-68" x="840.673828"/>
     <use xlink:href="#DejaVuSans-Bold-62" x="911.865234"/>
     <use xlink:href="#DejaVuSans-Bold-6f" x="983.447266"/>
     <use xlink:href="#DejaVuSans-Bold-61" x="1052.148438"/>
     <use xlink:href="#DejaVuSans-Bold-72" x="1119.628906"/>
     <use xlink:href="#DejaVuSans-Bold-64" x="1168.945312"/>
     <use xlink:href="#DejaVuSans-Bold-20" x="1240.527344"/>
     <use xlink:href="#DejaVuSans-Bold-2d" x="1275.341797"/>
     <use xlink:href="#DejaVuSans-Bold-20" x="1316.845703"/>
     <use xlink:href="#DejaVuSans-Bold-41" x="1351.660156"/>
     <use xlink:href="#DejaVuSans-Bold-72" x="1429.052734"/>
     <use xlink:href="#DejaVuSans-Bold-63" x="1478.369141"/>
     <use xlink:href="#DejaVuSans-Bold-68" x="1537.646484"/>
     <use xlink:href="#DejaVuSans-Bold-69" x="1608.837891"/>
     <use xlink:href="#DejaVuSans-Bold-74" x="1643.115234"/>
     <use xlink:href="#DejaVuSans-Bold-65" x="1690.917969"/>
     <use xlink:href="#DejaVuSans-Bold-63" x="1758.740234"/>
     <use xlink:href="#DejaVuSans-Bold-74" x="1818.017578"/>
     <use xlink:href="#DejaVuSans-Bold-75" x="1865.820312"/>
     <use xlink:href="#DejaVuSans-Bold-72" x="1937.011719"/>
     <use xlink:href="#DejaVuSans-Bold-65" x="1986.328125"/>
     <use xlink:href="#DejaVuSans-Bold-20" x="2054.150391"/>
     <use xlink:href="#DejaVuSans-Bold-28" x="2088.964844"/>
     <use xlink:href="#DejaVuSans-Bold-44" x="2134.667969"/>
     <use xlink:href="#DejaVuSans-Bold-65" x="2217.675781"/>
     <use xlink:href="#DejaVuSans-Bold-74" x="2285.498047"/>
     <use xlink:href="#DejaVuSans-Bold-61" x="2333.300781"/>
     <use xlink:href="#DejaVuSans-Bold-69" x="2400.78125"/>
     <use xlink:href="#DejaVuSans-Bold-6c" x="2435.058594"/>
     <use xlink:href="#DejaVuSans-Bold-65" x="2469.335938"/>
     <use xlink:href="#DejaVuSans-Bold-64" x="2537.158203"/>
     <use xlink:href="#DejaVuSans-Bold-29" x="2608.740234"/>
    </g>
   </g>
   <g id="text_2">
    <!-- Data Sources -->
    <g transform="translate(116.727188 104.691094) scale(0.09 -0.09)">
     <defs>
      <path id="DejaVuSans-44" d="M 1259 4147 
L 1259 519 
L 2022 519 
Q 2988 519 3436 956 
Q 3884 1394 3884 2338 
Q 3884 3275 3436 3711 
Q 2988 4147 2022 4147 
L 1259 4147 
z
M 628 4666 
L 1925 4666 
Q 3281 4666 3915 4102 
Q 4550 3538 4550 2338 
Q 4550 1131 3912 565 
Q 3275 0 1925 0 
L 628 0 
L 628 4666 
z
" transform="scale(0.015625)"/>
      <path id="DejaVuSans-61" d="M 2194 1759 
Q 1497 1759 1228 1600 
Q 959 1441 959 1056 
Q 959 750 1161 570 
Q 1363 391 1709 391 
Q 2188 391 2477 730 
Q 2766 1069 2766 1631 
L 2766 1759 
L 2194 1759 
z
M 3341 1997 
L 3341 0 
L 2766 0 
L 2766 531 
Q 2569 213 2275 61 
Q 1981 -91 1556 -91 
Q 1019 -91 701 211 
Q 384 513 384 1019 
Q 384 1609 779 1909 
Q 1175 2209 1959 2209 
L 2766 2209 
L 2766 2266 
Q 2766 2663 2505 2880 
Q 2244 3097 1772 3097 
Q 1472 3097 1187 3025 
Q 903 2953 641 2809 
L 641 3341 
Q 956 3463 1253 3523 
Q 1550 3584 1831 3584 
Q 2591 3584 2966 3190 
Q 3341 2797 3341 1997 
z
" transform="scale(0.015625)"/>
      <path id="DejaVuSans-74" d="M 1172 4494 
L 1172 3500 
L 2356 3500 
L 2356 3053 
L 1172 3053 
L 1172 1153 
Q 1172 725 1289 603 
Q 1406 481 1766 481 
L 2356 481 
L 2356 0 
L 1766 0 
Q 1100 0 847 248 
Q 594 497 594 1153 
L 594 3053 
L 172 3053 
L 172 3500 
L 594 3500 
L 594 4494 
L 1172 4494 
z
" transform="scale(0.015625)"/>
      <path id="DejaVuSans-20" transform="scale(0.015625)"/>
      <path id="DejaVuSans-53" d="M 3425 4513 
L 3425 3897 
Q 3066 4069 2747 4153 
Q 2428 4238 2131 4238 
Q 1616 4238 1336 4038 
Q 1056 3838 1056 3469 
Q 1056 3159 1242 3001 
Q 1428 2844 1947 2747 
L 2328 2669 
Q 3034 2534 3370 2195 
Q 3706 1856 3706 1288 
Q 3706 609 3251 259 
Q 2797 -91 1919 -91 
Q 1588 -91 1214 -16 
Q 841 59 441 206 
L 441 856 
Q 825 641 1194 531 
Q 1563 422 1919 422 
Q 2459 422 2753 634 
Q 3047 847 3047 1241 
Q 3047 1584 2836 1778 
Q 2625 1972 2144 2069 
L 1759 2144 
Q 1053 2284 737 2584 
Q 422 2884 422 3419 
Q 422 4038 858 4394 
Q 1294 4750 2059 4750 
Q 2388 4750 2728 4690 
Q 3069 4631 3425 4513 
z
" transform="scale(0.015625)"/>
      <path id="DejaVuSans-6f" d="M 1959 3097 
Q 1497 3097 1228 2736 
Q 959 2375 959 1747 
Q 959 1119 1226 758 
Q 1494 397 1959 397 
Q 2419 397 2687 759 
Q 2956 1122 2956 1747 
Q 2956 2369 2687 2733 
Q 2419 3097 1959 3097 
z
M 1959 3584 
Q 2709 3584 3137 3096 
Q 3566 2609 3566 1747 
Q 3566 888 3137 398 
Q 2709 -91 1959 -91 
Q 1206 -91 779 398 
Q 353 888 353 1747 
Q 353 2609 779 3096 
Q 1206 3584 1959 3584 
z
" transform="scale(0.015625)"/>
      <path id="DejaVuSans-75" d="M 544 1381 
L 544 3500 
L 1119 3500 
L 1119 1403 
Q 1119 906 1312 657 
Q 1506 409 1894 409 
Q 2359 409 2629 706 
Q 2900 1003 2900 1516 
L 2900 3500 
L 3475 3500 
L 3475 0 
L 2900 0 
L 2900 538 
Q 2691 219 2414 64 
Q 2138 -91 1772 -91 
Q 1169 -91 856 284 
Q 544 659 544 1381 
z
M 1991 3584 
L 1991 3584 
z
" transform="scale(0.015625)"/>
      <path id="DejaVuSans-72" d="M 2631 2963 
Q 2534 3019 2420 3045 
Q 2306 3072 2169 3072 
Q 1681 3072 1420 2755 
Q 1159 2438 1159 1844 
L 1159 0 
L 581 0 
L 581 3500 
L 1159 3500 
L 1159 2956 
Q 1341 3275 1631 3429 
Q 1922 3584 2338 3584 
Q 2397 3584 2469 3576 
Q 2541 3569 2628 3553 
L 2631 2963 
z
" transform="scale(0.015625)"/>
      <path id="DejaVuSans-63" d="M 3122 3366 
L 3122 2828 
Q 2878 2963 2633 3030 
Q 2388 3097 2138 3097 
Q 1578 3097 1268 2742 
Q 959 2388 959 1747 
Q 959 1106 1268 751 
Q 1578 397 2138 397 
Q 2388 397 2633 464 
Q 2878 531 3122 666 
L 3122 134 
Q 2881 22 2623 -34 
Q 2366 -91 2075 -91 
Q 1284 -91 818 406 
Q 353 903 353 1747 
Q 353 2603 823 3093 
Q 1294 3584 2113 3584 
Q 2378 3584 2631 3529 
Q 2884 3475 3122 3366 
z
" transform="scale(0.015625)"/>
      <path id="DejaVuSans-65" d="M 3597 1894 
L 3597 1613 
L 953 1613 
Q 991 1019 1311 708 
Q 1631 397 2203 397 
Q 2534 397 2845 478 
Q 3156 559 3463 722 
L 3463 178 
Q 3153 47 2828 -22 
Q 2503 -91 2169 -91 
Q 1331 -91 842 396 
Q 353 884 353 1716 
Q 353 2575 817 3079 
Q 1281 3584 2069 3584 
Q 2775 3584 3186 3129 
Q 3597 2675 3597 1894 
z
M 3022 2063 
Q 3016 2534 2758 2815 
Q 2500 3097 2075 3097 
Q 1594 3097 1305 2825 
Q 1016 2553 972 2059 
L 3022 2063 
z
" transform="scale(0.015625)"/>
      <path id="DejaVuSans-73" d="M 2834 3397 
L 2834 2853 
Q 2591 2978 2328 3040 
Q 2066 3103 1784 3103 
Q 1356 3103 1142 2972 
Q 928 2841 928 2578 
Q 928 2378 1081 2264 
Q 1234 2150 1697 2047 
L 1894 2003 
Q 2506 1872 2764 1633 
Q 3022 1394 3022 966 
Q 3022 478 2636 193 
Q 2250 -91 1575 -91 
Q 1294 -91 989 -36 
Q 684 19 347 128 
L 347 722 
Q 666 556 975 473 
Q 1284 391 1588 391 
Q 1994 391 2212 530 
Q 2431 669 2431 922 
Q 2431 1156 2273 1281 
Q 2116 1406 1581 1522 
L 1381 1569 
Q 847 1681 609 1914 
Q 372 2147 372 2553 
Q 372 3047 722 3315 
Q 1072 3584 1716 3584 
Q 2034 3584 2315 3537 
Q 2597 3491 2834 3397 
z
" transform="scale(0.015625)"/>
     </defs>
     <use xlink:href="#DejaVuSans-44"/>
     <use xlink:href="#DejaVuSans-61" x="77.001953"/>
     <use xlink:href="#DejaVuSans-74" x="138.28125"/>
     <use xlink:href="#DejaVuSans-61" x="177.490234"/>
     <use xlink:href="#DejaVuSans-20" x="238.769531"/>
     <use xlink:href="#DejaVuSans-53" x="270.556641"/>
     <use xlink:href="#DejaVuSans-6f" x="334.033203"/>
     <use xlink:href="#DejaVuSans-75" x="395.214844"/>
     <use xlink:href="#DejaVuSans-72" x="458.59375"/>
     <use xlink:href="#DejaVuSans-63" x="497.457031"/>
     <use xlink:href="#DejaVuSans-65" x="552.4375"/>
     <use xlink:href="#DejaVuSans-73" x="613.960938"/>
    </g>
    <!-- - sdoh_data.csv (member-level) -->
    <g transform="translate(75.550781 114.769125) scale(0.09 -0.09)">
     <defs>
      <path id="DejaVuSans-2d" d="M 313 2009 
L 1997 2009 
L 1997 1497 
L 313 1497 
L 313 2009 
z
" transform="scale(0.015625)"/>
      <path id="DejaVuSans-64" d="M 2906 2969 
L 2906 4863 
L 3481 4863 
L 3481 0 
L 2906 0 
L 2906 525 
Q 2725 213 2448 61 
Q 2172 -91 1784 -91 
Q 1150 -91 751 415 
Q 353 922 353 1747 
Q 353 2572 751 3078 
Q 1150 3584 1784 3584 
Q 2172 3584 2448 3432 
Q 2725 3281 2906 2969 
z
M 947 1747 
Q 947 1113 1208 752 
Q 1469 391 1925 391 
Q 2381 391 2643 752 
Q 2906 1113 2906 1747 
Q 2906 2381 2643 2742 
Q 2381 3103 1925 3103 
Q 1469 3103 1208 2742 
Q 947 2381 947 1747 
z
" transform="scale(0.015625)"/>
      <path id="DejaVuSans-68" d="M 3513 2113 
L 3513 0 
L 2938 0 
L 2938 2094 
Q 2938 2591 2744 2837 
Q 2550 3084 2163 3084 
Q 1697 3084 1428 2787 
Q 1159 2491 1159 1978 
L 1159 0 
L 581 0 
L 581 4863 
L 1159 4863 
L 1159 2956 
Q 1366 3272 1645 3428 
Q 1925 3584 2291 3584 
Q 2894 3584 3203 3211 
Q 3513 2838 3513 2113 
z
" transform="scale(0.015625)"/>
      <path id="DejaVuSans-5f" d="M 3263 -1063 
L 3263 -1509 
L -63 -1509 
L -63 -1063 
L 3263 -1063 
z
" transform="scale(0.015625)"/>
      <path id="DejaVuSans-2e" d="M 684 794 
L 1344 794 
L 1344 0 
L 684 0 
L 684 794 
z
" transform="scale(0.015625)"/>
      <path id="DejaVuSans-76" d="M 191 3500 
L 800 3500 
L 1894 563 
L 2988 3500 
L 3597 3500 
L 2284 0 
L 1503 0 
L 191 3500 
z
" transform="scale(0.015625)"/>
      <path id="DejaVuSans-28" d="M 1984 4856 
Q 1566 4138 1362 3434 
Q 1159 2731 1159 2009 
Q 1159 1288 1364 580 
Q 1569 -128 1984 -844 
L 1484 -844 
Q 1016 -109 783 600 
Q 550 1309 550 2009 
Q 550 2706 781 3412 
Q 1013 4119 1484 4856 
L 1984 4856 
z
" transform="scale(0.015625)"/>
      <path id="DejaVuSans-6d" d="M 3328 2828 
Q 3544 3216 3844 3400 
Q 4144 3584 4550 3584 
Q 5097 3584 5394 3201 
Q 5691 2819 5691 2113 
L 5691 0 
L 5113 0 
L 5113 2094 
Q 5113 2597 4934 2840 
Q 4756 3084 4391 3084 
Q 3944 3084 3684 2787 
Q 3425 2491 3425 1978 
L 3425 0 
L 2847 0 
L 2847 2094 
Q 2847 2600 2669 2842 
Q 2491 3084 2119 3084 
Q 1678 3084 1418 2786 
Q 1159 2488 1159 1978 
L 1159 0 
L 581 0 
L 581 3500 
L 1159 3500 
L 1159 2956 
Q 1356 3278 1631 3431 
Q 1906 3584 2284 3584 
Q 2666 3584 2933 3390 
Q 3200 3197 3328 2828 
z
" transform="scale(0.015625)"/>
      <path id="DejaVuSans-62" d="M 3116 1747 
Q 3116 2381 2855 2742 
Q 2594 3103 2138 3103 
Q 1681 3103 1420 2742 
Q 1159 2381 1159 1747 
Q 1159 1113 1420 752 
Q 1681 391 2138 391 
Q 2594 391 2855 752 
Q 3116 1113 3116 1747 
z
M 1159 2969 
Q 1341 3281 1617 3432 
Q 1894 3584 2278 3584 
Q 2916 3584 3314 3078 
Q 3713 2572 3713 1747 
Q 3713 922 3314 415 
Q 2916 -91 2278 -91 
Q 1894 -91 1617 61 
Q 1341 213 1159 525 
L 1159 0 
L 581 0 
L 581 4863 
L 1159 4863 
L 1159 2969 
z
" transform="scale(0.015625)"/>
      <path id="DejaVuSans-6c" d="M 603 4863 
L 1178 4863 
L 1178 0 
L 603 0 
L 603 4863 
z
" transform="scale(0.015625)"/>
      <path id="DejaVuSans-29" d="M 513 4856 
L 1013 4856 
Q 1481 4119 1714 3412 
Q 1947 2706 1947 2009 
Q 1947 1309 1714 600 
Q 1481 -109 1013 -844 
L 513 -844 
Q 928 -128 1133 580 
Q 1338 1288 1338 2009 
Q 1338 2731 1133 3434 
Q 928 4138 513 4856 
z
" transform="scale(0.015625)"/>
     </defs>
     <use xlink:href="#DejaVuSans-2d"/>
     <use xlink:href="#DejaVuSans-20" x="36.083984"/>
     <use xlink:href="#DejaVuSans-73" x="67.871094"/>
     <use xlink:href="#DejaVuSans-64" x="119.970703"/>
     <use xlink:href="#DejaVuSans-6f" x="183.447266"/>
     <use xlink:href="#DejaVuSans-68" x="244.628906"/>
     <use xlink:href="#DejaVuSans-5f" x="308.007812"/>
     <use xlink:href="#DejaVuSans-64" x="358.007812"/>
     <use xlink:href="#DejaVuSans-61" x="421.484375"/>
     <use xlink:href="#DejaVuSans-74" x="482.763672"/>
     <use xlink:href="#DejaVuSans-61" x="521.972656"/>
     <use xlink:href="#DejaVuSans-2e" x="583.251953"/>
     <use xlink:href="#DejaVuSans-63" x="615.039062"/>
     <use xlink:href="#DejaVuSans-73" x="670.019531"/>
     <use xlink:href="#DejaVuSans-76" x="722.119141"/>
     <use xlink:href="#DejaVuSans-20" x="781.298828"/>
     <use xlink:href="#DejaVuSans-28" x="813.085938"/>
     <use xlink:href="#DejaVuSans-6d" x="852.099609"/>
     <use xlink:href="#DejaVuSans-65" x="949.511719"/>
     <use xlink:href="#DejaVuSans-6d" x="1011.035156"/>
     <use xlink:href="#DejaVuSans-62" x="1108.447266"/>
     <use xlink:href="#DejaVuSans-65" x="1171.923828"/>
     <use xlink:href="#DejaVuSans-72" x="1233.447266"/>
     <use xlink:href="#DejaVuSans-2d" x="1268.185547"/>
     <use xlink:href="#DejaVuSans-6c" x="1304.269531"/>
     <use xlink:href="#DejaVuSans-65" x="1332.052734"/>
     <use xlink:href="#DejaVuSans-76" x="1393.576172"/>
     <use xlink:href="#DejaVuSans-65" x="1452.755859"/>
     <use xlink:href="#DejaVuSans-6c" x="1514.279297"/>
     <use xlink:href="#DejaVuSans-29" x="1542.0625"/>
    </g>
    <!-- - zip_boundaries.geojson (ZIP polygons) -->
    <g transform="translate(56.951719 125.097469) scale(0.09 -0.09)">
     <defs>
      <path id="DejaVuSans-7a" d="M 353 3500 
L 3084 3500 
L 3084 2975 
L 922 459 
L 3084 459 
L 3084 0 
L 275 0 
L 275 525 
L 2438 3041 
L 353 3041 
L 353 3500 
z
" transform="scale(0.015625)"/>
      <path id="DejaVuSans-69" d="M 603 3500 
L 1178 3500 
L 1178 0 
L 603 0 
L 603 3500 
z
M 603 4863 
L 1178 4863 
L 1178 4134 
L 603 4134 
L 603 4863 
z
" transform="scale(0.015625)"/>
      <path id="DejaVuSans-70" d="M 1159 525 
L 1159 -1331 
L 581 -1331 
L 581 3500 
L 1159 3500 
L 1159 2969 
Q 1341 3281 1617 3432 
Q 1894 3584 2278 3584 
Q 2916 3584 3314 3078 
Q 3713 2572 3713 1747 
Q 3713 922 3314 415 
Q 2916 -91 2278 -91 
Q 1894 -91 1617 61 
Q 1341 213 1159 525 
z
M 3116 1747 
Q 3116 2381 2855 2742 
Q 2594 3103 2138 3103 
Q 1681 3103 1420 2742 
Q 1159 2381 1159 1747 
Q 1159 1113 1420 752 
Q 1681 391 2138 391 
Q 2594 391 2855 752 
Q 3116 1113 3116 1747 
z
" transform="scale(0.015625)"/>
      <path id="DejaVuSans-6e" d="M 3513 2113 
L 3513 0 
L 2938 0 
L 2938 2094 
Q 2938 2591 2744 2837 
Q 2550 3084 2163 3084 
Q 1697 3084 1428 2787 
Q 1159 2491 1159 1978 
L 1159 0 
L 581 0 
L 581 3500 
L 1159 3500 
L 1159 2956 
Q 1366 3272 1645 3428 
Q 1925 3584 2291 3584 
Q 2894 3584 3203 3211 
Q 3513 2838 3513 2113 
z
" transform="scale(0.015625)"/>
      <path id="DejaVuSans-67" d="M 2906 1791 
Q 2906 2416 2648 2759 
Q 2391 3103 1925 3103 
Q 1463 3103 1205 2759 
Q 947 2416 947 1791 
Q 947 1169 1205 825 
Q 1463 481 1925 481 
Q 2391 481 2648 825 
Q 2906 1169 2906 1791 
z
M 3481 434 
Q 3481 -459 3084 -895 
Q 2688 -1331 1869 -1331 
Q 1566 -1331 1297 -1286 
Q 1028 -1241 775 -1147 
L 775 -588 
Q 1028 -725 1275 -790 
Q 1522 -856 1778 -856 
Q 2344 -856 2625 -561 
Q 2906 -266 2906 331 
L 2906 616 
Q 2728 306 2450 153 
Q 2172 0 1784 0 
Q 1141 0 747 490 
Q 353 981 353 1791 
Q 353 2603 747 3093 
Q 1141 3584 1784 3584 
Q 2172 3584 2450 3431 
Q 2728 3278 2906 2969 
L 2906 3500 
L 3481 3500 
L 3481 434 
z
" transform="scale(0.015625)"/>
      <path id="DejaVuSans-6a" d="M 603 3500 
L 1178 3500 
L 1178 -63 
Q 1178 -731 923 -1031 
Q 669 -1331 103 -1331 
L -116 -1331 
L -116 -844 
L 38 -844 
Q 366 -844 484 -692 
Q 603 -541 603 -63 
L 603 3500 
z
M 603 4863 
L 1178 4863 
L 1178 4134 
L 603 4134 
L 603 4863 
z
" transform="scale(0.015625)"/>
      <path id="DejaVuSans-5a" d="M 359 4666 
L 4025 4666 
L 4025 4184 
L 1075 531 
L 4097 531 
L 4097 0 
L 288 0 
L 288 481 
L 3238 4134 
L 359 4134 
L 359 4666 
z
" transform="scale(0.015625)"/>
      <path id="DejaVuSans-49" d="M 628 4666 
L 1259 4666 
L 1259 0 
L 628 0 
L 628 4666 
z
" transform="scale(0.015625)"/>
      <path id="DejaVuSans-50" d="M 1259 4147 
L 1259 2394 
L 2053 2394 
Q 2494 2394 2734 2622 
Q 2975 2850 2975 3272 
Q 2975 3691 2734 3919 
Q 2494 4147 2053 4147 
L 1259 4147 
z
M 628 4666 
L 2053 4666 
Q 2838 4666 3239 4311 
Q 3641 3956 3641 3272 
Q 3641 2581 3239 2228 
Q 2838 1875 2053 1875 
L 1259 1875 
L 1259 0 
L 628 0 
L 628 4666 
z
" transform="scale(0.015625)"/>
      <path id="DejaVuSans-79" d="M 2059 -325 
Q 1816 -950 1584 -1140 
Q 1353 -1331 966 -1331 
L 506 -1331 
L 506 -850 
L 844 -850 
Q 1081 -850 1212 -737 
Q 1344 -625 1503 -206 
L 1606 56 
L 191 3500 
L 800 3500 
L 1894 763 
L 2988 3500 
L 3597 3500 
L 2059 -325 
z
" transform="scale(0.015625)"/>
     </defs>
     <use xlink:href="#DejaVuSans-2d"/>
     <use xlink:href="#DejaVuSans-20" x="36.083984"/>
     <use xlink:href="#DejaVuSans-7a" x="67.871094"/>
     <use xlink:href="#DejaVuSans-69" x="120.361328"/>
     <use xlink:href="#DejaVuSans-70" x="148.144531"/>
     <use xlink:href="#DejaVuSans-5f" x="211.621094"/>
     <use xlink:href="#DejaVuSans-62" x="261.621094"/>
     <use xlink:href="#DejaVuSans-6f" x="325.097656"/>
     <use xlink:href="#DejaVuSans-75" x="386.279297"/>
     <use xlink:href="#DejaVuSans-6e" x="449.658203"/>
     <use xlink:href="#DejaVuSans-64" x="513.037109"/>
     <use xlink:href="#DejaVuSans-61" x="576.513672"/>
     <use xlink:href="#DejaVuSans-72" x="637.792969"/>
     <use xlink:href="#DejaVuSans-69" x="678.90625"/>
     <use xlink:href="#DejaVuSans-65" x="706.689453"/>
     <use xlink:href="#DejaVuSans-73" x="768.212891"/>
     <use xlink:href="#DejaVuSans-2e" x="820.3125"/>
     <use xlink:href="#DejaVuSans-67" x="852.099609"/>
     <use xlink:href="#DejaVuSans-65" x="915.576172"/>
     <use xlink:href="#DejaVuSans-6f" x="977.099609"/>
     <use xlink:href="#DejaVuSans-6a" x="1038.28125"/>
     <use xlink:href="#DejaVuSans-73" x="1066.064453"/>
     <use xlink:href="#DejaVuSans-6f" x="1118.164062"/>
     <use xlink:href="#DejaVuSans-6e" x="1179.345703"/>
     <use xlink:href="#DejaVuSans-20" x="1242.724609"/>
     <use xlink:href="#DejaVuSans-28" x="1274.511719"/>
     <use xlink:href="#DejaVuSans-5a" x="1313.525391"/>
     <use xlink:href="#DejaVuSans-49" x="1382.03125"/>
     <use xlink:href="#DejaVuSans-50" x="1411.523438"/>
     <use xlink:href="#DejaVuSans-20" x="1471.826172"/>
     <use xlink:href="#DejaVuSans-70" x="1503.613281"/>
     <use xlink:href="#DejaVuSans-6f" x="1567.089844"/>
     <use xlink:href="#DejaVuSans-6c" x="1628.271484"/>
     <use xlink:href="#DejaVuSans-79" x="1656.054688"/>
     <use xlink:href="#DejaVuSans-67" x="1715.234375"/>
     <use xlink:href="#DejaVuSans-6f" x="1778.710938"/>
     <use xlink:href="#DejaVuSans-6e" x="1839.892578"/>
     <use xlink:href="#DejaVuSans-73" x="1903.271484"/>
     <use xlink:href="#DejaVuSans-29" x="1955.371094"/>
    </g>
   </g>
   <g id="text_3">
    <!-- External Libraries -->
    <g transform="translate(107.163984 199.189406) scale(0.09 -0.09)">
     <defs>
      <path id="DejaVuSans-45" d="M 628 4666 
L 3578 4666 
L 3578 4134 
L 1259 4134 
L 1259 2753 
L 3481 2753 
L 3481 2222 
L 1259 2222 
L 1259 531 
L 3634 531 
L 3634 0 
L 628 0 
L 628 4666 
z
" transform="scale(0.015625)"/>
      <path id="DejaVuSans-78" d="M 3513 3500 
L 2247 1797 
L 3578 0 
L 2900 0 
L 1881 1375 
L 863 0 
L 184 0 
L 1544 1831 
L 300 3500 
L 978 3500 
L 1906 2253 
L 2834 3500 
L 3513 3500 
z
" transform="scale(0.015625)"/>
      <path id="DejaVuSans-4c" d="M 628 4666 
L 1259 4666 
L 1259 531 
L 3531 531 
L 3531 0 
L 628 0 
L 628 4666 
z
" transform="scale(0.015625)"/>
     </defs>
     <use xlink:href="#DejaVuSans-45"/>
     <use xlink:href="#DejaVuSans-78" x="63.183594"/>
     <use xlink:href="#DejaVuSans-74" x="122.363281"/>
     <use xlink:href="#DejaVuSans-65" x="161.572266"/>
     <use xlink:href="#DejaVuSans-72" x="223.095703"/>
     <use xlink:href="#DejaVuSans-6e" x="262.458984"/>
     <use xlink:href="#DejaVuSans-61" x="325.837891"/>
     <use xlink:href="#DejaVuSans-6c" x="387.117188"/>
     <use xlink:href="#DejaVuSans-20" x="414.900391"/>
     <use xlink:href="#DejaVuSans-4c" x="446.6875"/>
     <use xlink:href="#DejaVuSans-69" x="502.400391"/>
     <use xlink:href="#DejaVuSans-62" x="530.183594"/>
     <use xlink:href="#DejaVuSans-72" x="593.660156"/>
     <use xlink:href="#DejaVuSans-61" x="634.773438"/>
     <use xlink:href="#DejaVuSans-72" x="696.052734"/>
     <use xlink:href="#DejaVuSans-69" x="737.166016"/>
     <use xlink:href="#DejaVuSans-65" x="764.949219"/>
     <use xlink:href="#DejaVuSans-73" x="826.472656"/>
    </g>
    <!-- - Chart.js (radar charts) -->
    <g transform="translate(93.770156 209.267438) scale(0.09 -0.09)">
     <defs>
      <path id="DejaVuSans-43" d="M 4122 4306 
L 4122 3641 
Q 3803 3938 3442 4084 
Q 3081 4231 2675 4231 
Q 1875 4231 1450 3742 
Q 1025 3253 1025 2328 
Q 1025 1406 1450 917 
Q 1875 428 2675 428 
Q 3081 428 3442 575 
Q 3803 722 4122 1019 
L 4122 359 
Q 3791 134 3420 21 
Q 3050 -91 2638 -91 
Q 1578 -91 968 557 
Q 359 1206 359 2328 
Q 359 3453 968 4101 
Q 1578 4750 2638 4750 
Q 3056 4750 3426 4639 
Q 3797 4528 4122 4306 
z
" transform="scale(0.015625)"/>
     </defs>
     <use xlink:href="#DejaVuSans-2d"/>
     <use xlink:href="#DejaVuSans-20" x="36.083984"/>
     <use xlink:href="#DejaVuSans-43" x="67.871094"/>
     <use xlink:href="#DejaVuSans-68" x="137.695312"/>
     <use xlink:href="#DejaVuSans-61" x="201.074219"/>
     <use xlink:href="#DejaVuSans-72" x="262.353516"/>
     <use xlink:href="#DejaVuSans-74" x="303.466797"/>
     <use xlink:href="#DejaVuSans-2e" x="342.675781"/>
     <use xlink:href="#DejaVuSans-6a" x="374.462891"/>
     <use xlink:href="#DejaVuSans-73" x="402.246094"/>
     <use xlink:href="#DejaVuSans-20" x="454.345703"/>
     <use xlink:href="#DejaVuSans-28" x="486.132812"/>
     <use xlink:href="#DejaVuSans-72" x="525.146484"/>
     <use xlink:href="#DejaVuSans-61" x="566.259766"/>
     <use xlink:href="#DejaVuSans-64" x="627.539062"/>
     <use xlink:href="#DejaVuSans-61" x="691.015625"/>
     <use xlink:href="#DejaVuSans-72" x="752.294922"/>
     <use xlink:href="#DejaVuSans-20" x="793.408203"/>
     <use xlink:href="#DejaVuSans-63" x="825.195312"/>
     <use xlink:href="#DejaVuSans-68" x="880.175781"/>
     <use xlink:href="#DejaVuSans-61" x="943.554688"/>
     <use xlink:href="#DejaVuSans-72" x="1004.833984"/>
     <use xlink:href="#DejaVuSans-74" x="1045.947266"/>
     <use xlink:href="#DejaVuSans-73" x="1085.15625"/>
     <use xlink:href="#DejaVuSans-29" x="1137.255859"/>
    </g>
    <!-- - Leaflet (maps) -->
    <g transform="translate(111.040313 219.345469) scale(0.09 -0.09)">
     <defs>
      <path id="DejaVuSans-66" d="M 2375 4863 
L 2375 4384 
L 1825 4384 
Q 1516 4384 1395 4259 
Q 1275 4134 1275 3809 
L 1275 3500 
L 2222 3500 
L 2222 3053 
L 1275 3053 
L 1275 0 
L 697 0 
L 697 3053 
L 147 3053 
L 147 3500 
L 697 3500 
L 697 3744 
Q 697 4328 969 4595 
Q 1241 4863 1831 4863 
L 2375 4863 
z
" transform="scale(0.015625)"/>
     </defs>
     <use xlink:href="#DejaVuSans-2d"/>
     <use xlink:href="#DejaVuSans-20" x="36.083984"/>
     <use xlink:href="#DejaVuSans-4c" x="67.871094"/>
     <use xlink:href="#DejaVuSans-65" x="121.833984"/>
     <use xlink:href="#DejaVuSans-61" x="183.357422"/>
     <use xlink:href="#DejaVuSans-66" x="244.636719"/>
     <use xlink:href="#DejaVuSans-6c" x="279.841797"/>
     <use xlink:href="#DejaVuSans-65" x="307.625"/>
     <use xlink:href="#DejaVuSans-74" x="369.148438"/>
     <use xlink:href="#DejaVuSans-20" x="408.357422"/>
     <use xlink:href="#DejaVuSans-28" x="440.144531"/>
     <use xlink:href="#DejaVuSans-6d" x="479.158203"/>
     <use xlink:href="#DejaVuSans-61" x="576.570312"/>
     <use xlink:href="#DejaVuSans-70" x="637.849609"/>
     <use xlink:href="#DejaVuSans-73" x="701.326172"/>
     <use xlink:href="#DejaVuSans-29" x="753.425781"/>
    </g>
   </g>
   <g id="text_4">
    <!-- index.html (SPA shell) -->
    <g transform="translate(376.509375 104.941406) scale(0.09 -0.09)">
     <defs>
      <path id="DejaVuSans-41" d="M 2188 4044 
L 1331 1722 
L 3047 1722 
L 2188 4044 
z
M 1831 4666 
L 2547 4666 
L 4325 0 
L 3669 0 
L 3244 1197 
L 1141 1197 
L 716 0 
L 50 0 
L 1831 4666 
z
" transform="scale(0.015625)"/>
     </defs>
     <use xlink:href="#DejaVuSans-69"/>
     <use xlink:href="#DejaVuSans-6e" x="27.783203"/>
     <use xlink:href="#DejaVuSans-64" x="91.162109"/>
     <use xlink:href="#DejaVuSans-65" x="154.638672"/>
     <use xlink:href="#DejaVuSans-78" x="214.412109"/>
     <use xlink:href="#DejaVuSans-2e" x="273.591797"/>
     <use xlink:href="#DejaVuSans-68" x="305.378906"/>
     <use xlink:href="#DejaVuSans-74" x="368.757812"/>
     <use xlink:href="#DejaVuSans-6d" x="407.966797"/>
     <use xlink:href="#DejaVuSans-6c" x="505.378906"/>
     <use xlink:href="#DejaVuSans-20" x="533.162109"/>
     <use xlink:href="#DejaVuSans-28" x="564.949219"/>
     <use xlink:href="#DejaVuSans-53" x="603.962891"/>
     <use xlink:href="#DejaVuSans-50" x="667.439453"/>
     <use xlink:href="#DejaVuSans-41" x="721.367188"/>
     <use xlink:href="#DejaVuSans-20" x="789.775391"/>
     <use xlink:href="#DejaVuSans-73" x="821.5625"/>
     <use xlink:href="#DejaVuSans-68" x="873.662109"/>
     <use xlink:href="#DejaVuSans-65" x="937.041016"/>
     <use xlink:href="#DejaVuSans-6c" x="998.564453"/>
     <use xlink:href="#DejaVuSans-6c" x="1026.347656"/>
     <use xlink:href="#DejaVuSans-29" x="1054.130859"/>
    </g>
    <!-- - Filters, tables, KPIs, modals -->
    <g transform="translate(361.152422 115.019438) scale(0.09 -0.09)">
     <defs>
      <path id="DejaVuSans-46" d="M 628 4666 
L 3309 4666 
L 3309 4134 
L 1259 4134 
L 1259 2759 
L 3109 2759 
L 3109 2228 
L 1259 2228 
L 1259 0 
L 628 0 
L 628 4666 
z
" transform="scale(0.015625)"/>
      <path id="DejaVuSans-2c" d="M 750 794 
L 1409 794 
L 1409 256 
L 897 -744 
L 494 -744 
L 750 256 
L 750 794 
z
" transform="scale(0.015625)"/>
      <path id="DejaVuSans-4b" d="M 628 4666 
L 1259 4666 
L 1259 2694 
L 3353 4666 
L 4166 4666 
L 1850 2491 
L 4331 0 
L 3500 0 
L 1259 2247 
L 1259 0 
L 628 0 
L 628 4666 
z
" transform="scale(0.015625)"/>
     </defs>
     <use xlink:href="#DejaVuSans-2d"/>
     <use xlink:href="#DejaVuSans-20" x="36.083984"/>
     <use xlink:href="#DejaVuSans-46" x="67.871094"/>
     <use xlink:href="#DejaVuSans-69" x="118.140625"/>
     <use xlink:href="#DejaVuSans-6c" x="145.923828"/>
     <use xlink:href="#DejaVuSans-74" x="173.707031"/>
     <use xlink:href="#DejaVuSans-65" x="212.916016"/>
     <use xlink:href="#DejaVuSans-72" x="274.439453"/>
     <use xlink:href="#DejaVuSans-73" x="315.552734"/>
     <use xlink:href="#DejaVuSans-2c" x="367.652344"/>
     <use xlink:href="#DejaVuSans-20" x="399.439453"/>
     <use xlink:href="#DejaVuSans-74" x="431.226562"/>
     <use xlink:href="#DejaVuSans-61" x="470.435547"/>
     <use xlink:href="#DejaVuSans-62" x="531.714844"/>
     <use xlink:href="#DejaVuSans-6c" x="595.191406"/>
     <use xlink:href="#DejaVuSans-65" x="622.974609"/>
     <use xlink:href="#DejaVuSans-73" x="684.498047"/>
     <use xlink:href="#DejaVuSans-2c" x="736.597656"/>
     <use xlink:href="#DejaVuSans-20" x="768.384766"/>
     <use xlink:href="#DejaVuSans-4b" x="800.171875"/>
     <use xlink:href="#DejaVuSans-50" x="865.748047"/>
     <use xlink:href="#DejaVuSans-49" x="926.050781"/>
     <use xlink:href="#DejaVuSans-73" x="955.542969"/>
     <use xlink:href="#DejaVuSans-2c" x="1007.642578"/>
     <use xlink:href="#DejaVuSans-20" x="1039.429688"/>
     <use xlink:href="#DejaVuSans-6d" x="1071.216797"/>
     <use xlink:href="#DejaVuSans-6f" x="1168.628906"/>
     <use xlink:href="#DejaVuSans-64" x="1229.810547"/>
     <use xlink:href="#DejaVuSans-61" x="1293.287109"/>
     <use xlink:href="#DejaVuSans-6c" x="1354.566406"/>
     <use xlink:href="#DejaVuSans-73" x="1382.349609"/>
    </g>
    <!-- - Containers for charts/maps -->
    <g transform="translate(361.364063 125.097469) scale(0.09 -0.09)">
     <defs>
      <path id="DejaVuSans-2f" d="M 1625 4666 
L 2156 4666 
L 531 -594 
L 0 -594 
L 1625 4666 
z
" transform="scale(0.015625)"/>
     </defs>
     <use xlink:href="#DejaVuSans-2d"/>
     <use xlink:href="#DejaVuSans-20" x="36.083984"/>
     <use xlink:href="#DejaVuSans-43" x="67.871094"/>
     <use xlink:href="#DejaVuSans-6f" x="137.695312"/>
     <use xlink:href="#DejaVuSans-6e" x="198.876953"/>
     <use xlink:href="#DejaVuSans-74" x="262.255859"/>
     <use xlink:href="#DejaVuSans-61" x="301.464844"/>
     <use xlink:href="#DejaVuSans-69" x="362.744141"/>
     <use xlink:href="#DejaVuSans-6e" x="390.527344"/>
     <use xlink:href="#DejaVuSans-65" x="453.90625"/>
     <use xlink:href="#DejaVuSans-72" x="515.429688"/>
     <use xlink:href="#DejaVuSans-73" x="556.542969"/>
     <use xlink:href="#DejaVuSans-20" x="608.642578"/>
     <use xlink:href="#DejaVuSans-66" x="640.429688"/>
     <use xlink:href="#DejaVuSans-6f" x="675.634766"/>
     <use xlink:href="#DejaVuSans-72" x="736.816406"/>
     <use xlink:href="#DejaVuSans-20" x="777.929688"/>
     <use xlink:href="#DejaVuSans-63" x="809.716797"/>
     <use xlink:href="#DejaVuSans-68" x="864.697266"/>
     <use xlink:href="#DejaVuSans-61" x="928.076172"/>
     <use xlink:href="#DejaVuSans-72" x="989.355469"/>
     <use xlink:href="#DejaVuSans-74" x="1030.46875"/>
     <use xlink:href="#DejaVuSans-73" x="1069.677734"/>
     <use xlink:href="#DejaVuSans-2f" x="1121.777344"/>
     <use xlink:href="#DejaVuSans-6d" x="1155.46875"/>
     <use xlink:href="#DejaVuSans-61" x="1252.880859"/>
     <use xlink:href="#DejaVuSans-70" x="1314.160156"/>
     <use xlink:href="#DejaVuSans-73" x="1377.636719"/>
    </g>
   </g>
   <g id="text_5">
    <!-- styles.css -->
    <g transform="translate(713.662031 104.941406) scale(0.09 -0.09)">
     <use xlink:href="#DejaVuSans-73"/>
     <use xlink:href="#DejaVuSans-74" x="52.099609"/>
     <use xlink:href="#DejaVuSans-79" x="91.308594"/>
     <use xlink:href="#DejaVuSans-6c" x="150.488281"/>
     <use xlink:href="#DejaVuSans-65" x="178.271484"/>
     <use xlink:href="#DejaVuSans-73" x="239.794922"/>
     <use xlink:href="#DejaVuSans-2e" x="291.894531"/>
     <use xlink:href="#DejaVuSans-63" x="323.681641"/>
     <use xlink:href="#DejaVuSans-73" x="378.662109"/>
     <use xlink:href="#DejaVuSans-73" x="430.761719"/>
    </g>
    <!-- - Layout &amp; components -->
    <g transform="translate(682.866563 115.019438) scale(0.09 -0.09)">
     <defs>
      <path id="DejaVuSans-26" d="M 1556 2509 
Q 1272 2256 1139 2004 
Q 1006 1753 1006 1478 
Q 1006 1022 1337 719 
Q 1669 416 2169 416 
Q 2466 416 2725 514 
Q 2984 613 3213 813 
L 1556 2509 
z
M 1997 2859 
L 3584 1234 
Q 3769 1513 3872 1830 
Q 3975 2147 3994 2503 
L 4575 2503 
Q 4538 2091 4375 1687 
Q 4213 1284 3922 891 
L 4794 0 
L 4006 0 
L 3559 459 
Q 3234 181 2878 45 
Q 2522 -91 2113 -91 
Q 1359 -91 881 339 
Q 403 769 403 1441 
Q 403 1841 612 2192 
Q 822 2544 1241 2853 
Q 1091 3050 1012 3245 
Q 934 3441 934 3628 
Q 934 4134 1281 4442 
Q 1628 4750 2203 4750 
Q 2463 4750 2720 4694 
Q 2978 4638 3244 4525 
L 3244 3956 
Q 2972 4103 2725 4179 
Q 2478 4256 2266 4256 
Q 1938 4256 1733 4082 
Q 1528 3909 1528 3634 
Q 1528 3475 1620 3314 
Q 1713 3153 1997 2859 
z
" transform="scale(0.015625)"/>
     </defs>
     <use xlink:href="#DejaVuSans-2d"/>
     <use xlink:href="#DejaVuSans-20" x="36.083984"/>
     <use xlink:href="#DejaVuSans-4c" x="67.871094"/>
     <use xlink:href="#DejaVuSans-61" x="123.583984"/>
     <use xlink:href="#DejaVuSans-79" x="184.863281"/>
     <use xlink:href="#DejaVuSans-6f" x="244.042969"/>
     <use xlink:href="#DejaVuSans-75" x="305.224609"/>
     <use xlink:href="#DejaVuSans-74" x="368.603516"/>
     <use xlink:href="#DejaVuSans-20" x="407.8125"/>
     <use xlink:href="#DejaVuSans-26" x="439.599609"/>
     <use xlink:href="#DejaVuSans-20" x="517.578125"/>
     <use xlink:href="#DejaVuSans-63" x="549.365234"/>
     <use xlink:href="#DejaVuSans-6f" x="604.345703"/>
     <use xlink:href="#DejaVuSans-6d" x="665.527344"/>
     <use xlink:href="#DejaVuSans-70" x="762.939453"/>
     <use xlink:href="#DejaVuSans-6f" x="826.416016"/>
     <use xlink:href="#DejaVuSans-6e" x="887.597656"/>
     <use xlink:href="#DejaVuSans-65" x="950.976562"/>
     <use xlink:href="#DejaVuSans-6e" x="1012.5"/>
     <use xlink:href="#DejaVuSans-74" x="1075.878906"/>
     <use xlink:href="#DejaVuSans-73" x="1115.087891"/>
    </g>
    <!-- - Map, tables, modals, KPIs -->
    <g transform="translate(674.834766 125.097469) scale(0.09 -0.09)">
     <defs>
      <path id="DejaVuSans-4d" d="M 628 4666 
L 1569 4666 
L 2759 1491 
L 3956 4666 
L 4897 4666 
L 4897 0 
L 4281 0 
L 4281 4097 
L 3078 897 
L 2444 897 
L 1241 4097 
L 1241 0 
L 628 0 
L 628 4666 
z
" transform="scale(0.015625)"/>
     </defs>
     <use xlink:href="#DejaVuSans-2d"/>
     <use xlink:href="#DejaVuSans-20" x="36.083984"/>
     <use xlink:href="#DejaVuSans-4d" x="67.871094"/>
     <use xlink:href="#DejaVuSans-61" x="154.150391"/>
     <use xlink:href="#DejaVuSans-70" x="215.429688"/>
     <use xlink:href="#DejaVuSans-2c" x="278.90625"/>
     <use xlink:href="#DejaVuSans-20" x="310.693359"/>
     <use xlink:href="#DejaVuSans-74" x="342.480469"/>
     <use xlink:href="#DejaVuSans-61" x="381.689453"/>
     <use xlink:href="#DejaVuSans-62" x="442.96875"/>
     <use xlink:href="#DejaVuSans-6c" x="506.445312"/>
     <use xlink:href="#DejaVuSans-65" x="534.228516"/>
     <use xlink:href="#DejaVuSans-73" x="595.751953"/>
     <use xlink:href="#DejaVuSans-2c" x="647.851562"/>
     <use xlink:href="#DejaVuSans-20" x="679.638672"/>
     <use xlink:href="#DejaVuSans-6d" x="711.425781"/>
     <use xlink:href="#DejaVuSans-6f" x="808.837891"/>
     <use xlink:href="#DejaVuSans-64" x="870.019531"/>
     <use xlink:href="#DejaVuSans-61" x="933.496094"/>
     <use xlink:href="#DejaVuSans-6c" x="994.775391"/>
     <use xlink:href="#DejaVuSans-73" x="1022.558594"/>
     <use xlink:href="#DejaVuSans-2c" x="1074.658203"/>
     <use xlink:href="#DejaVuSans-20" x="1106.445312"/>
     <use xlink:href="#DejaVuSans-4b" x="1138.232422"/>
     <use xlink:href="#DejaVuSans-50" x="1203.808594"/>
     <use xlink:href="#DejaVuSans-49" x="1264.111328"/>
     <use xlink:href="#DejaVuSans-73" x="1293.603516"/>
    </g>
   </g>
   <g id="text_6">
    <!-- app.js (Core Logic) -->
    <g transform="translate(383.655938 194.150391) scale(0.09 -0.09)">
     <use xlink:href="#DejaVuSans-61"/>
     <use xlink:href="#DejaVuSans-70" x="61.279297"/>
     <use xlink:href="#DejaVuSans-70" x="124.755859"/>
     <use xlink:href="#DejaVuSans-2e" x="188.232422"/>
     <use xlink:href="#DejaVuSans-6a" x="220.019531"/>
     <use xlink:href="#DejaVuSans-73" x="247.802734"/>
     <use xlink:href="#DejaVuSans-20" x="299.902344"/>
     <use xlink:href="#DejaVuSans-28" x="331.689453"/>
     <use xlink:href="#DejaVuSans-43" x="370.703125"/>
     <use xlink:href="#DejaVuSans-6f" x="440.527344"/>
     <use xlink:href="#DejaVuSans-72" x="501.708984"/>
     <use xlink:href="#DejaVuSans-65" x="540.572266"/>
     <use xlink:href="#DejaVuSans-20" x="602.095703"/>
     <use xlink:href="#DejaVuSans-4c" x="633.882812"/>
     <use xlink:href="#DejaVuSans-6f" x="687.845703"/>
     <use xlink:href="#DejaVuSans-67" x="749.027344"/>
     <use xlink:href="#DejaVuSans-69" x="812.503906"/>
     <use xlink:href="#DejaVuSans-63" x="840.287109"/>
     <use xlink:href="#DejaVuSans-29" x="895.267578"/>
    </g>
    <!-- - Data load + normalize -->
    <g transform="translate(372.074063 204.228422) scale(0.09 -0.09)">
     <defs>
      <path id="DejaVuSans-2b" d="M 2944 4013 
L 2944 2272 
L 4684 2272 
L 4684 1741 
L 2944 1741 
L 2944 0 
L 2419 0 
L 2419 1741 
L 678 1741 
L 678 2272 
L 2419 2272 
L 2419 4013 
L 2944 4013 
z
" transform="scale(0.015625)"/>
     </defs>
     <use xlink:href="#DejaVuSans-2d"/>
     <use xlink:href="#DejaVuSans-20" x="36.083984"/>
     <use xlink:href="#DejaVuSans-44" x="67.871094"/>
     <use xlink:href="#DejaVuSans-61" x="144.873047"/>
     <use xlink:href="#DejaVuSans-74" x="206.152344"/>
     <use xlink:href="#DejaVuSans-61" x="245.361328"/>
     <use xlink:href="#DejaVuSans-20" x="306.640625"/>
     <use xlink:href="#DejaVuSans-6c" x="338.427734"/>
     <use xlink:href="#DejaVuSans-6f" x="366.210938"/>
     <use xlink:href="#DejaVuSans-61" x="427.392578"/>
     <use xlink:href="#DejaVuSans-64" x="488.671875"/>
     <use xlink:href="#DejaVuSans-20" x="552.148438"/>
     <use xlink:href="#DejaVuSans-2b" x="583.935547"/>
     <use xlink:href="#DejaVuSans-20" x="667.724609"/>
     <use xlink:href="#DejaVuSans-6e" x="699.511719"/>
     <use xlink:href="#DejaVuSans-6f" x="762.890625"/>
     <use xlink:href="#DejaVuSans-72" x="824.072266"/>
     <use xlink:href="#DejaVuSans-6d" x="863.435547"/>
     <use xlink:href="#DejaVuSans-61" x="960.847656"/>
     <use xlink:href="#DejaVuSans-6c" x="1022.126953"/>
     <use xlink:href="#DejaVuSans-69" x="1049.910156"/>
     <use xlink:href="#DejaVuSans-7a" x="1077.693359"/>
     <use xlink:href="#DejaVuSans-65" x="1130.183594"/>
    </g>
    <!-- - State + filters -->
    <g transform="translate(391.291875 214.306453) scale(0.09 -0.09)">
     <use xlink:href="#DejaVuSans-2d"/>
     <use xlink:href="#DejaVuSans-20" x="36.083984"/>
     <use xlink:href="#DejaVuSans-53" x="67.871094"/>
     <use xlink:href="#DejaVuSans-74" x="131.347656"/>
     <use xlink:href="#DejaVuSans-61" x="170.556641"/>
     <use xlink:href="#DejaVuSans-74" x="231.835938"/>
     <use xlink:href="#DejaVuSans-65" x="271.044922"/>
     <use xlink:href="#DejaVuSans-20" x="332.568359"/>
     <use xlink:href="#DejaVuSans-2b" x="364.355469"/>
     <use xlink:href="#DejaVuSans-20" x="448.144531"/>
     <use xlink:href="#DejaVuSans-66" x="479.931641"/>
     <use xlink:href="#DejaVuSans-69" x="515.136719"/>
     <use xlink:href="#DejaVuSans-6c" x="542.919922"/>
     <use xlink:href="#DejaVuSans-74" x="570.703125"/>
     <use xlink:href="#DejaVuSans-65" x="609.912109"/>
     <use xlink:href="#DejaVuSans-72" x="671.435547"/>
     <use xlink:href="#DejaVuSans-73" x="712.548828"/>
    </g>
    <!-- - Render orchestration -->
    <g transform="translate(375.262734 224.384484) scale(0.09 -0.09)">
     <defs>
      <path id="DejaVuSans-52" d="M 2841 2188 
Q 3044 2119 3236 1894 
Q 3428 1669 3622 1275 
L 4263 0 
L 3584 0 
L 2988 1197 
Q 2756 1666 2539 1819 
Q 2322 1972 1947 1972 
L 1259 1972 
L 1259 0 
L 628 0 
L 628 4666 
L 2053 4666 
Q 2853 4666 3247 4331 
Q 3641 3997 3641 3322 
Q 3641 2881 3436 2590 
Q 3231 2300 2841 2188 
z
M 1259 4147 
L 1259 2491 
L 2053 2491 
Q 2509 2491 2742 2702 
Q 2975 2913 2975 3322 
Q 2975 3731 2742 3939 
Q 2509 4147 2053 4147 
L 1259 4147 
z
" transform="scale(0.015625)"/>
     </defs>
     <use xlink:href="#DejaVuSans-2d"/>
     <use xlink:href="#DejaVuSans-20" x="36.083984"/>
     <use xlink:href="#DejaVuSans-52" x="67.871094"/>
     <use xlink:href="#DejaVuSans-65" x="132.853516"/>
     <use xlink:href="#DejaVuSans-6e" x="194.376953"/>
     <use xlink:href="#DejaVuSans-64" x="257.755859"/>
     <use xlink:href="#DejaVuSans-65" x="321.232422"/>
     <use xlink:href="#DejaVuSans-72" x="382.755859"/>
     <use xlink:href="#DejaVuSans-20" x="423.869141"/>
     <use xlink:href="#DejaVuSans-6f" x="455.65625"/>
     <use xlink:href="#DejaVuSans-72" x="516.837891"/>
     <use xlink:href="#DejaVuSans-63" x="555.701172"/>
     <use xlink:href="#DejaVuSans-68" x="610.681641"/>
     <use xlink:href="#DejaVuSans-65" x="674.060547"/>
     <use xlink:href="#DejaVuSans-73" x="735.583984"/>
     <use xlink:href="#DejaVuSans-74" x="787.683594"/>
     <use xlink:href="#DejaVuSans-72" x="826.892578"/>
     <use xlink:href="#DejaVuSans-61" x="868.005859"/>
     <use xlink:href="#DejaVuSans-74" x="929.285156"/>
     <use xlink:href="#DejaVuSans-69" x="968.494141"/>
     <use xlink:href="#DejaVuSans-6f" x="996.277344"/>
     <use xlink:href="#DejaVuSans-6e" x="1057.458984"/>
    </g>
   </g>
   <g id="text_7">
    <!-- Filtering -->
    <g transform="translate(309.945937 305.030391) scale(0.09 -0.09)">
     <use xlink:href="#DejaVuSans-46"/>
     <use xlink:href="#DejaVuSans-69" x="50.269531"/>
     <use xlink:href="#DejaVuSans-6c" x="78.052734"/>
     <use xlink:href="#DejaVuSans-74" x="105.835938"/>
     <use xlink:href="#DejaVuSans-65" x="145.044922"/>
     <use xlink:href="#DejaVuSans-72" x="206.568359"/>
     <use xlink:href="#DejaVuSans-69" x="247.681641"/>
     <use xlink:href="#DejaVuSans-6e" x="275.464844"/>
     <use xlink:href="#DejaVuSans-67" x="338.84375"/>
    </g>
    <!-- - initFilters -->
    <g transform="translate(304.390547 315.108422) scale(0.09 -0.09)">
     <use xlink:href="#DejaVuSans-2d"/>
     <use xlink:href="#DejaVuSans-20" x="36.083984"/>
     <use xlink:href="#DejaVuSans-69" x="67.871094"/>
     <use xlink:href="#DejaVuSans-6e" x="95.654297"/>
     <use xlink:href="#DejaVuSans-69" x="159.033203"/>
     <use xlink:href="#DejaVuSans-74" x="186.816406"/>
     <use xlink:href="#DejaVuSans-46" x="226.025391"/>
     <use xlink:href="#DejaVuSans-69" x="276.294922"/>
     <use xlink:href="#DejaVuSans-6c" x="304.078125"/>
     <use xlink:href="#DejaVuSans-74" x="331.861328"/>
     <use xlink:href="#DejaVuSans-65" x="371.070312"/>
     <use xlink:href="#DejaVuSans-72" x="432.59375"/>
     <use xlink:href="#DejaVuSans-73" x="473.707031"/>
    </g>
    <!-- - matchesMulti -->
    <g transform="translate(294.652969 325.186453) scale(0.09 -0.09)">
     <use xlink:href="#DejaVuSans-2d"/>
     <use xlink:href="#DejaVuSans-20" x="36.083984"/>
     <use xlink:href="#DejaVuSans-6d" x="67.871094"/>
     <use xlink:href="#DejaVuSans-61" x="165.283203"/>
     <use xlink:href="#DejaVuSans-74" x="226.5625"/>
     <use xlink:href="#DejaVuSans-63" x="265.771484"/>
     <use xlink:href="#DejaVuSans-68" x="320.751953"/>
     <use xlink:href="#DejaVuSans-65" x="384.130859"/>
     <use xlink:href="#DejaVuSans-73" x="445.654297"/>
     <use xlink:href="#DejaVuSans-4d" x="497.753906"/>
     <use xlink:href="#DejaVuSans-75" x="584.033203"/>
     <use xlink:href="#DejaVuSans-6c" x="647.412109"/>
     <use xlink:href="#DejaVuSans-74" x="675.195312"/>
     <use xlink:href="#DejaVuSans-69" x="714.404297"/>
    </g>
    <!-- - renderAll trigger -->
    <g transform="translate(287.945859 335.264484) scale(0.09 -0.09)">
     <use xlink:href="#DejaVuSans-2d"/>
     <use xlink:href="#DejaVuSans-20" x="36.083984"/>
     <use xlink:href="#DejaVuSans-72" x="67.871094"/>
     <use xlink:href="#DejaVuSans-65" x="106.734375"/>
     <use xlink:href="#DejaVuSans-6e" x="168.257812"/>
     <use xlink:href="#DejaVuSans-64" x="231.636719"/>
     <use xlink:href="#DejaVuSans-65" x="295.113281"/>
     <use xlink:href="#DejaVuSans-72" x="356.636719"/>
     <use xlink:href="#DejaVuSans-41" x="397.75"/>
     <use xlink:href="#DejaVuSans-6c" x="466.158203"/>
     <use xlink:href="#DejaVuSans-6c" x="493.941406"/>
     <use xlink:href="#DejaVuSans-20" x="521.724609"/>
     <use xlink:href="#DejaVuSans-74" x="553.511719"/>
     <use xlink:href="#DejaVuSans-72" x="592.720703"/>
     <use xlink:href="#DejaVuSans-69" x="633.833984"/>
     <use xlink:href="#DejaVuSans-67" x="661.617188"/>
     <use xlink:href="#DejaVuSans-67" x="725.09375"/>
     <use xlink:href="#DejaVuSans-65" x="788.570312"/>
     <use xlink:href="#DejaVuSans-72" x="850.09375"/>
    </g>
   </g>
   <g id="text_8">
    <!-- Aggregation -->
    <g transform="translate(512.546484 310.069406) scale(0.09 -0.09)">
     <use xlink:href="#DejaVuSans-41"/>
     <use xlink:href="#DejaVuSans-67" x="68.408203"/>
     <use xlink:href="#DejaVuSans-67" x="131.884766"/>
     <use xlink:href="#DejaVuSans-72" x="195.361328"/>
     <use xlink:href="#DejaVuSans-65" x="234.224609"/>
     <use xlink:href="#DejaVuSans-67" x="295.748047"/>
     <use xlink:href="#DejaVuSans-61" x="359.224609"/>
     <use xlink:href="#DejaVuSans-74" x="420.503906"/>
     <use xlink:href="#DejaVuSans-69" x="459.712891"/>
     <use xlink:href="#DejaVuSans-6f" x="487.496094"/>
     <use xlink:href="#DejaVuSans-6e" x="548.677734"/>
    </g>
    <!-- - aggregateByZip -->
    <g transform="translate(500.959688 320.147438) scale(0.09 -0.09)">
     <defs>
      <path id="DejaVuSans-42" d="M 1259 2228 
L 1259 519 
L 2272 519 
Q 2781 519 3026 730 
Q 3272 941 3272 1375 
Q 3272 1813 3026 2020 
Q 2781 2228 2272 2228 
L 1259 2228 
z
M 1259 4147 
L 1259 2741 
L 2194 2741 
Q 2656 2741 2882 2914 
Q 3109 3088 3109 3444 
Q 3109 3797 2882 3972 
Q 2656 4147 2194 4147 
L 1259 4147 
z
M 628 4666 
L 2241 4666 
Q 2963 4666 3353 4366 
Q 3744 4066 3744 3513 
Q 3744 3084 3544 2831 
Q 3344 2578 2956 2516 
Q 3422 2416 3680 2098 
Q 3938 1781 3938 1306 
Q 3938 681 3513 340 
Q 3088 0 2303 0 
L 628 0 
L 628 4666 
z
" transform="scale(0.015625)"/>
     </defs>
     <use xlink:href="#DejaVuSans-2d"/>
     <use xlink:href="#DejaVuSans-20" x="36.083984"/>
     <use xlink:href="#DejaVuSans-61" x="67.871094"/>
     <use xlink:href="#DejaVuSans-67" x="129.150391"/>
     <use xlink:href="#DejaVuSans-67" x="192.626953"/>
     <use xlink:href="#DejaVuSans-72" x="256.103516"/>
     <use xlink:href="#DejaVuSans-65" x="294.966797"/>
     <use xlink:href="#DejaVuSans-67" x="356.490234"/>
     <use xlink:href="#DejaVuSans-61" x="419.966797"/>
     <use xlink:href="#DejaVuSans-74" x="481.246094"/>
     <use xlink:href="#DejaVuSans-65" x="520.455078"/>
     <use xlink:href="#DejaVuSans-42" x="581.978516"/>
     <use xlink:href="#DejaVuSans-79" x="650.582031"/>
     <use xlink:href="#DejaVuSans-5a" x="709.761719"/>
     <use xlink:href="#DejaVuSans-69" x="778.267578"/>
     <use xlink:href="#DejaVuSans-70" x="806.050781"/>
    </g>
    <!-- - aggregateByContract -->
    <g transform="translate(488.791406 330.225469) scale(0.09 -0.09)">
     <use xlink:href="#DejaVuSans-2d"/>
     <use xlink:href="#DejaVuSans-20" x="36.083984"/>
     <use xlink:href="#DejaVuSans-61" x="67.871094"/>
     <use xlink:href="#DejaVuSans-67" x="129.150391"/>
     <use xlink:href="#DejaVuSans-67" x="192.626953"/>
     <use xlink:href="#DejaVuSans-72" x="256.103516"/>
     <use xlink:href="#DejaVuSans-65" x="294.966797"/>
     <use xlink:href="#DejaVuSans-67" x="356.490234"/>
     <use xlink:href="#DejaVuSans-61" x="419.966797"/>
     <use xlink:href="#DejaVuSans-74" x="481.246094"/>
     <use xlink:href="#DejaVuSans-65" x="520.455078"/>
     <use xlink:href="#DejaVuSans-42" x="581.978516"/>
     <use xlink:href="#DejaVuSans-79" x="650.582031"/>
     <use xlink:href="#DejaVuSans-43" x="709.761719"/>
     <use xlink:href="#DejaVuSans-6f" x="779.585938"/>
     <use xlink:href="#DejaVuSans-6e" x="840.767578"/>
     <use xlink:href="#DejaVuSans-74" x="904.146484"/>
     <use xlink:href="#DejaVuSans-72" x="943.355469"/>
     <use xlink:href="#DejaVuSans-61" x="984.46875"/>
     <use xlink:href="#DejaVuSans-63" x="1045.748047"/>
     <use xlink:href="#DejaVuSans-74" x="1100.728516"/>
    </g>
   </g>
   <g id="text_9">
    <!-- Rendering -->
    <g transform="translate(729.150469 310.069406) scale(0.09 -0.09)">
     <use xlink:href="#DejaVuSans-52"/>
     <use xlink:href="#DejaVuSans-65" x="64.982422"/>
     <use xlink:href="#DejaVuSans-6e" x="126.505859"/>
     <use xlink:href="#DejaVuSans-64" x="189.884766"/>
     <use xlink:href="#DejaVuSans-65" x="253.361328"/>
     <use xlink:href="#DejaVuSans-72" x="314.884766"/>
     <use xlink:href="#DejaVuSans-69" x="355.998047"/>
     <use xlink:href="#DejaVuSans-6e" x="383.78125"/>
     <use xlink:href="#DejaVuSans-67" x="447.160156"/>
    </g>
    <!-- - Member / ZIP / Contract -->
    <g transform="translate(695.332266 320.147438) scale(0.09 -0.09)">
     <use xlink:href="#DejaVuSans-2d"/>
     <use xlink:href="#DejaVuSans-20" x="36.083984"/>
     <use xlink:href="#DejaVuSans-4d" x="67.871094"/>
     <use xlink:href="#DejaVuSans-65" x="154.150391"/>
     <use xlink:href="#DejaVuSans-6d" x="215.673828"/>
     <use xlink:href="#DejaVuSans-62" x="313.085938"/>
     <use xlink:href="#DejaVuSans-65" x="376.5625"/>
     <use xlink:href="#DejaVuSans-72" x="438.085938"/>
     <use xlink:href="#DejaVuSans-20" x="479.199219"/>
     <use xlink:href="#DejaVuSans-2f" x="510.986328"/>
     <use xlink:href="#DejaVuSans-20" x="544.677734"/>
     <use xlink:href="#DejaVuSans-5a" x="576.464844"/>
     <use xlink:href="#DejaVuSans-49" x="644.970703"/>
     <use xlink:href="#DejaVuSans-50" x="674.462891"/>
     <use xlink:href="#DejaVuSans-20" x="734.765625"/>
     <use xlink:href="#DejaVuSans-2f" x="766.552734"/>
     <use xlink:href="#DejaVuSans-20" x="800.244141"/>
     <use xlink:href="#DejaVuSans-43" x="832.03125"/>
     <use xlink:href="#DejaVuSans-6f" x="901.855469"/>
     <use xlink:href="#DejaVuSans-6e" x="963.037109"/>
     <use xlink:href="#DejaVuSans-74" x="1026.416016"/>
     <use xlink:href="#DejaVuSans-72" x="1065.625"/>
     <use xlink:href="#DejaVuSans-61" x="1106.738281"/>
     <use xlink:href="#DejaVuSans-63" x="1168.017578"/>
     <use xlink:href="#DejaVuSans-74" x="1222.998047"/>
    </g>
    <!-- - KPIs, tables, detail panels -->
    <g transform="translate(691.370156 330.225469) scale(0.09 -0.09)">
     <use xlink:href="#DejaVuSans-2d"/>
     <use xlink:href="#DejaVuSans-20" x="36.083984"/>
     <use xlink:href="#DejaVuSans-4b" x="67.871094"/>
     <use xlink:href="#DejaVuSans-50" x="133.447266"/>
     <use xlink:href="#DejaVuSans-49" x="193.75"/>
     <use xlink:href="#DejaVuSans-73" x="223.242188"/>
     <use xlink:href="#DejaVuSans-2c" x="275.341797"/>
     <use xlink:href="#DejaVuSans-20" x="307.128906"/>
     <use xlink:href="#DejaVuSans-74" x="338.916016"/>
     <use xlink:href="#DejaVuSans-61" x="378.125"/>
     <use xlink:href="#DejaVuSans-62" x="439.404297"/>
     <use xlink:href="#DejaVuSans-6c" x="502.880859"/>
     <use xlink:href="#DejaVuSans-65" x="530.664062"/>
     <use xlink:href="#DejaVuSans-73" x="592.1875"/>
     <use xlink:href="#DejaVuSans-2c" x="644.287109"/>
     <use xlink:href="#DejaVuSans-20" x="676.074219"/>
     <use xlink:href="#DejaVuSans-64" x="707.861328"/>
     <use xlink:href="#DejaVuSans-65" x="771.337891"/>
     <use xlink:href="#DejaVuSans-74" x="832.861328"/>
     <use xlink:href="#DejaVuSans-61" x="872.070312"/>
     <use xlink:href="#DejaVuSans-69" x="933.349609"/>
     <use xlink:href="#DejaVuSans-6c" x="961.132812"/>
     <use xlink:href="#DejaVuSans-20" x="988.916016"/>
     <use xlink:href="#DejaVuSans-70" x="1020.703125"/>
     <use xlink:href="#DejaVuSans-61" x="1084.179688"/>
     <use xlink:href="#DejaVuSans-6e" x="1145.458984"/>
     <use xlink:href="#DejaVuSans-65" x="1208.837891"/>
     <use xlink:href="#DejaVuSans-6c" x="1270.361328"/>
     <use xlink:href="#DejaVuSans-73" x="1298.144531"/>
    </g>
   </g>
   <g id="text_10">
    <!-- Charts -->
    <g transform="translate(313.339922 415.405406) scale(0.09 -0.09)">
     <use xlink:href="#DejaVuSans-43"/>
     <use xlink:href="#DejaVuSans-68" x="69.824219"/>
     <use xlink:href="#DejaVuSans-61" x="133.203125"/>
     <use xlink:href="#DejaVuSans-72" x="194.482422"/>
     <use xlink:href="#DejaVuSans-74" x="235.595703"/>
     <use xlink:href="#DejaVuSans-73" x="274.804688"/>
    </g>
    <!-- - Radar charts -->
    <g transform="translate(296.276484 425.483438) scale(0.09 -0.09)">
     <use xlink:href="#DejaVuSans-2d"/>
     <use xlink:href="#DejaVuSans-20" x="36.083984"/>
     <use xlink:href="#DejaVuSans-52" x="67.871094"/>
     <use xlink:href="#DejaVuSans-61" x="135.103516"/>
     <use xlink:href="#DejaVuSans-64" x="196.382812"/>
     <use xlink:href="#DejaVuSans-61" x="259.859375"/>
     <use xlink:href="#DejaVuSans-72" x="321.138672"/>
     <use xlink:href="#DejaVuSans-20" x="362.251953"/>
     <use xlink:href="#DejaVuSans-63" x="394.039062"/>
     <use xlink:href="#DejaVuSans-68" x="449.019531"/>
     <use xlink:href="#DejaVuSans-61" x="512.398438"/>
     <use xlink:href="#DejaVuSans-72" x="573.677734"/>
     <use xlink:href="#DejaVuSans-74" x="614.791016"/>
     <use xlink:href="#DejaVuSans-73" x="654"/>
    </g>
    <!-- - Driver bars -->
    <g transform="translate(299.910234 435.561469) scale(0.09 -0.09)">
     <use xlink:href="#DejaVuSans-2d"/>
     <use xlink:href="#DejaVuSans-20" x="36.083984"/>
     <use xlink:href="#DejaVuSans-44" x="67.871094"/>
     <use xlink:href="#DejaVuSans-72" x="144.873047"/>
     <use xlink:href="#DejaVuSans-69" x="185.986328"/>
     <use xlink:href="#DejaVuSans-76" x="213.769531"/>
     <use xlink:href="#DejaVuSans-65" x="272.949219"/>
     <use xlink:href="#DejaVuSans-72" x="334.472656"/>
     <use xlink:href="#DejaVuSans-20" x="375.585938"/>
     <use xlink:href="#DejaVuSans-62" x="407.373047"/>
     <use xlink:href="#DejaVuSans-61" x="470.849609"/>
     <use xlink:href="#DejaVuSans-72" x="532.128906"/>
     <use xlink:href="#DejaVuSans-73" x="573.242188"/>
    </g>
   </g>
   <g id="text_11">
    <!-- Map -->
    <g transform="translate(530.592891 415.405406) scale(0.09 -0.09)">
     <use xlink:href="#DejaVuSans-4d"/>
     <use xlink:href="#DejaVuSans-61" x="86.279297"/>
     <use xlink:href="#DejaVuSans-70" x="147.558594"/>
    </g>
    <!-- - Leaflet ZIP map -->
    <g transform="translate(501.732422 425.483438) scale(0.09 -0.09)">
     <use xlink:href="#DejaVuSans-2d"/>
     <use xlink:href="#DejaVuSans-20" x="36.083984"/>
     <use xlink:href="#DejaVuSans-4c" x="67.871094"/>
     <use xlink:href="#DejaVuSans-65" x="121.833984"/>
     <use xlink:href="#DejaVuSans-61" x="183.357422"/>
     <use xlink:href="#DejaVuSans-66" x="244.636719"/>
     <use xlink:href="#DejaVuSans-6c" x="279.841797"/>
     <use xlink:href="#DejaVuSans-65" x="307.625"/>
     <use xlink:href="#DejaVuSans-74" x="369.148438"/>
     <use xlink:href="#DejaVuSans-20" x="408.357422"/>
     <use xlink:href="#DejaVuSans-5a" x="440.144531"/>
     <use xlink:href="#DejaVuSans-49" x="508.650391"/>
     <use xlink:href="#DejaVuSans-50" x="538.142578"/>
     <use xlink:href="#DejaVuSans-20" x="598.445312"/>
     <use xlink:href="#DejaVuSans-6d" x="630.232422"/>
     <use xlink:href="#DejaVuSans-61" x="727.644531"/>
     <use xlink:href="#DejaVuSans-70" x="788.923828"/>
    </g>
    <!-- - Choropleth + tooltips -->
    <g transform="translate(488.927109 435.561469) scale(0.09 -0.09)">
     <use xlink:href="#DejaVuSans-2d"/>
     <use xlink:href="#DejaVuSans-20" x="36.083984"/>
     <use xlink:href="#DejaVuSans-43" x="67.871094"/>
     <use xlink:href="#DejaVuSans-68" x="137.695312"/>
     <use xlink:href="#DejaVuSans-6f" x="201.074219"/>
     <use xlink:href="#DejaVuSans-72" x="262.255859"/>
     <use xlink:href="#DejaVuSans-6f" x="301.119141"/>
     <use xlink:href="#DejaVuSans-70" x="362.300781"/>
     <use xlink:href="#DejaVuSans-6c" x="425.777344"/>
     <use xlink:href="#DejaVuSans-65" x="453.560547"/>
     <use xlink:href="#DejaVuSans-74" x="515.083984"/>
     <use xlink:href="#DejaVuSans-68" x="554.292969"/>
     <use xlink:href="#DejaVuSans-20" x="617.671875"/>
     <use xlink:href="#DejaVuSans-2b" x="649.458984"/>
     <use xlink:href="#DejaVuSans-20" x="733.248047"/>
     <use xlink:href="#DejaVuSans-74" x="765.035156"/>
     <use xlink:href="#DejaVuSans-6f" x="804.244141"/>
     <use xlink:href="#DejaVuSans-6f" x="865.425781"/>
     <use xlink:href="#DejaVuSans-6c" x="926.607422"/>
     <use xlink:href="#DejaVuSans-74" x="954.390625"/>
     <use xlink:href="#DejaVuSans-69" x="993.599609"/>
     <use xlink:href="#DejaVuSans-70" x="1021.382812"/>
     <use xlink:href="#DejaVuSans-73" x="1084.859375"/>
    </g>
   </g>
   <g id="text_12">
    <!-- Exports &amp; Modals -->
    <g transform="translate(712.840078 415.405406) scale(0.09 -0.09)">
     <use xlink:href="#DejaVuSans-45"/>
     <use xlink:href="#DejaVuSans-78" x="63.183594"/>
     <use xlink:href="#DejaVuSans-70" x="122.363281"/>
     <use xlink:href="#DejaVuSans-6f" x="185.839844"/>
     <use xlink:href="#DejaVuSans-72" x="247.021484"/>
     <use xlink:href="#DejaVuSans-74" x="288.134766"/>
     <use xlink:href="#DejaVuSans-73" x="327.34375"/>
     <use xlink:href="#DejaVuSans-20" x="379.443359"/>
     <use xlink:href="#DejaVuSans-26" x="411.230469"/>
     <use xlink:href="#DejaVuSans-20" x="489.208984"/>
     <use xlink:href="#DejaVuSans-4d" x="520.996094"/>
     <use xlink:href="#DejaVuSans-6f" x="607.275391"/>
     <use xlink:href="#DejaVuSans-64" x="668.457031"/>
     <use xlink:href="#DejaVuSans-61" x="731.933594"/>
     <use xlink:href="#DejaVuSans-6c" x="793.212891"/>
     <use xlink:href="#DejaVuSans-73" x="820.996094"/>
    </g>
    <!-- - CSV exports -->
    <g transform="translate(721.646719 425.483438) scale(0.09 -0.09)">
     <defs>
      <path id="DejaVuSans-56" d="M 1831 0 
L 50 4666 
L 709 4666 
L 2188 738 
L 3669 4666 
L 4325 4666 
L 2547 0 
L 1831 0 
z
" transform="scale(0.015625)"/>
     </defs>
     <use xlink:href="#DejaVuSans-2d"/>
     <use xlink:href="#DejaVuSans-20" x="36.083984"/>
     <use xlink:href="#DejaVuSans-43" x="67.871094"/>
     <use xlink:href="#DejaVuSans-53" x="137.695312"/>
     <use xlink:href="#DejaVuSans-56" x="201.171875"/>
     <use xlink:href="#DejaVuSans-20" x="269.580078"/>
     <use xlink:href="#DejaVuSans-65" x="301.367188"/>
     <use xlink:href="#DejaVuSans-78" x="361.140625"/>
     <use xlink:href="#DejaVuSans-70" x="420.320312"/>
     <use xlink:href="#DejaVuSans-6f" x="483.796875"/>
     <use xlink:href="#DejaVuSans-72" x="544.978516"/>
     <use xlink:href="#DejaVuSans-74" x="586.091797"/>
     <use xlink:href="#DejaVuSans-73" x="625.300781"/>
    </g>
    <!-- - Member + ZIP modals -->
    <g transform="translate(699.035625 435.561469) scale(0.09 -0.09)">
     <use xlink:href="#DejaVuSans-2d"/>
     <use xlink:href="#DejaVuSans-20" x="36.083984"/>
     <use xlink:href="#DejaVuSans-4d" x="67.871094"/>
     <use xlink:href="#DejaVuSans-65" x="154.150391"/>
     <use xlink:href="#DejaVuSans-6d" x="215.673828"/>
     <use xlink:href="#DejaVuSans-62" x="313.085938"/>
     <use xlink:href="#DejaVuSans-65" x="376.5625"/>
     <use xlink:href="#DejaVuSans-72" x="438.085938"/>
     <use xlink:href="#DejaVuSans-20" x="479.199219"/>
     <use xlink:href="#DejaVuSans-2b" x="510.986328"/>
     <use xlink:href="#DejaVuSans-20" x="594.775391"/>
     <use xlink:href="#DejaVuSans-5a" x="626.5625"/>
     <use xlink:href="#DejaVuSans-49" x="695.068359"/>
     <use xlink:href="#DejaVuSans-50" x="724.560547"/>
     <use xlink:href="#DejaVuSans-20" x="784.863281"/>
     <use xlink:href="#DejaVuSans-6d" x="816.650391"/>
     <use xlink:href="#DejaVuSans-6f" x="914.0625"/>
     <use xlink:href="#DejaVuSans-64" x="975.244141"/>
     <use xlink:href="#DejaVuSans-61" x="1038.720703"/>
     <use xlink:href="#DejaVuSans-6c" x="1100"/>
     <use xlink:href="#DejaVuSans-73" x="1127.783203"/>
    </g>
   </g>
  </g>
 </g>
 <defs>
  <clipPath id="p9e4ab60d52">
   <rect x="7.2" y="7.2" width="892.8" height="554.4"/>
  </clipPath>
 </defs>
</svg>
